<svg width="67" height="66" viewBox="0 0 67 66" fill="none" xmlns="http://www.w3.org/2000/svg">
<path d="M50.1067 21.3439C49.8453 21.3429 49.5943 21.4458 49.4087 21.6299C49.2232 21.814 49.1183 22.0643 49.1173 22.3257V59.3067H45.4136V31.581C45.4133 31.4514 45.3875 31.3232 45.3376 31.2036C45.2877 31.084 45.2148 30.9754 45.1229 30.884C45.031 30.7927 44.9219 30.7203 44.802 30.6711C44.6822 30.6219 44.5537 30.5969 44.4242 30.5974H36.3411C36.0807 30.5984 35.8313 30.7024 35.6474 30.8867C35.4634 31.071 35.3599 31.3206 35.3593 31.581V59.3067H31.648V36.869C31.6469 36.6089 31.5432 36.3598 31.3593 36.1759C31.1754 35.992 30.9263 35.8883 30.6662 35.8872H22.5755C22.3154 35.8883 22.0663 35.992 21.8824 36.1759C21.6985 36.3598 21.5948 36.6089 21.5937 36.869V59.3067H17.89V40.0991C17.889 39.8377 17.7841 39.5875 17.5986 39.4034C17.413 39.2193 17.162 39.1164 16.9006 39.1174H8.81753C8.55614 39.1164 8.30505 39.2193 8.1195 39.4034C7.93395 39.5875 7.82912 39.8377 7.82808 40.0991V59.3067H5.90693C5.77685 59.3062 5.64796 59.3315 5.52768 59.381C5.40741 59.4306 5.29813 59.5034 5.20615 59.5954C5.11417 59.6874 5.04131 59.7967 4.99177 59.9169C4.94222 60.0372 4.91698 60.1661 4.91749 60.2962C4.91774 60.4258 4.94355 60.554 4.99343 60.6737C5.04332 60.7933 5.1163 60.9019 5.2082 60.9932C5.3001 61.0846 5.40912 61.1569 5.52902 61.2061C5.64892 61.2553 5.77734 61.2804 5.90693 61.2799H61.1004C61.3608 61.2788 61.6102 61.1748 61.7941 60.9905C61.9781 60.8062 62.0816 60.5566 62.0821 60.2962C62.0826 60.1668 62.0577 60.0385 62.0086 59.9187C61.9595 59.7989 61.8873 59.69 61.7962 59.5981C61.705 59.5062 61.5966 59.4332 61.4773 59.3832C61.3579 59.3332 61.2298 59.3072 61.1004 59.3067H59.1715V22.3257C59.1705 22.0656 59.0667 21.8165 58.8828 21.6326C58.699 21.4487 58.4498 21.345 58.1898 21.3439H50.1067ZM51.0885 23.3151H57.2003V59.3067H51.0885V23.3151ZM37.3305 32.5705H43.4424V59.3067H37.3305V32.5705ZM23.5649 37.8584H29.6768V59.3067H23.5649V37.8584ZM9.80119 41.0828H15.9188V59.3067H9.80119V41.0828Z" fill="#828282"/>
<path d="M53.3999 4.72222C53.3415 4.726 53.2835 4.73497 53.2266 4.74904L44.1618 6.98203C43.9081 7.04483 43.6897 7.20585 43.5547 7.42968C43.4197 7.6535 43.3791 7.92179 43.4419 8.17553C43.5047 8.42927 43.6657 8.64767 43.8895 8.78268C44.1133 8.9177 44.3816 8.95827 44.6354 8.89548L51.3247 7.24576C43.6961 21.4039 27.1556 31.0059 8.4397 31.98C8.31004 31.9869 8.18301 32.0193 8.06592 32.0755C7.94882 32.1316 7.84398 32.2103 7.7574 32.3071C7.67082 32.4039 7.60422 32.5168 7.56142 32.6394C7.51862 32.762 7.50047 32.8918 7.50801 33.0214C7.52195 33.2819 7.63858 33.5263 7.83234 33.7009C8.02611 33.8755 8.2812 33.9662 8.54172 33.9531C27.8341 32.9491 44.9863 23.0903 53.0187 8.25844L54.5145 15.0364C54.5711 15.2908 54.7263 15.5125 54.946 15.6529C55.1657 15.7932 55.4321 15.8408 55.6868 15.7852C55.9409 15.7285 56.1622 15.5736 56.3025 15.3544C56.4428 15.1351 56.4907 14.8692 56.4356 14.6148L54.4278 5.49029C54.3764 5.26063 54.2445 5.05695 54.056 4.91608C53.8674 4.77521 53.6347 4.70644 53.3999 4.72222Z" fill="#EB5757"/>
</svg>
