<svg width="146" height="31" viewBox="0 0 146 31" fill="none" xmlns="http://www.w3.org/2000/svg">
<g opacity="0.8">
<path d="M5.04001 26.0978V30.3654H4.48311V26.0978H5.04001ZM6.41174 26.0978V26.5609H3.11431V26.0978H6.41174Z" fill="#303030"/>
<path d="M15.615 28.0967V28.3664C15.615 28.6869 15.5749 28.9741 15.4948 29.2281C15.4147 29.4822 15.2994 29.6981 15.1489 29.8759C14.9985 30.0537 14.8177 30.1895 14.6067 30.2833C14.3976 30.3771 14.1631 30.424 13.9032 30.424C13.6512 30.424 13.4196 30.3771 13.2086 30.2833C12.9995 30.1895 12.8178 30.0537 12.6634 29.8759C12.511 29.6981 12.3928 29.4822 12.3088 29.2281C12.2247 28.9741 12.1827 28.6869 12.1827 28.3664V28.0967C12.1827 27.7763 12.2238 27.49 12.3058 27.2379C12.3899 26.9839 12.5081 26.768 12.6605 26.5902C12.8129 26.4104 12.9936 26.2736 13.2027 26.1798C13.4138 26.086 13.6453 26.0391 13.8974 26.0391C14.1573 26.0391 14.3918 26.086 14.6008 26.1798C14.8119 26.2736 14.9926 26.4104 15.1431 26.5902C15.2955 26.768 15.4118 26.9839 15.4919 27.2379C15.5739 27.49 15.615 27.7763 15.615 28.0967ZM15.0552 28.3664V28.0909C15.0552 27.8369 15.0288 27.6121 14.976 27.4167C14.9252 27.2213 14.85 27.0572 14.7503 26.9243C14.6507 26.7914 14.5285 26.6908 14.3839 26.6224C14.2413 26.554 14.0791 26.5198 13.8974 26.5198C13.7215 26.5198 13.5623 26.554 13.4196 26.6224C13.2789 26.6908 13.1578 26.7914 13.0562 26.9243C12.9565 27.0572 12.8793 27.2213 12.8246 27.4167C12.7699 27.6121 12.7426 27.8369 12.7426 28.0909V28.3664C12.7426 28.6224 12.7699 28.849 12.8246 29.0464C12.8793 29.2418 12.9575 29.4069 13.0591 29.5418C13.1627 29.6746 13.2848 29.7753 13.4255 29.8436C13.5681 29.912 13.7274 29.9462 13.9032 29.9462C14.0869 29.9462 14.2501 29.912 14.3927 29.8436C14.5354 29.7753 14.6556 29.6746 14.7533 29.5418C14.8529 29.4069 14.9281 29.2418 14.9789 29.0464C15.0298 28.849 15.0552 28.6224 15.0552 28.3664Z" fill="#303030"/>
<path d="M24.9824 28.2404V29.8026C24.9296 29.8808 24.8456 29.9687 24.7303 30.0664C24.615 30.1622 24.4557 30.2462 24.2525 30.3185C24.0513 30.3888 23.7914 30.424 23.4729 30.424C23.213 30.424 22.9736 30.3791 22.7548 30.2892C22.5379 30.1973 22.3493 30.0645 22.1891 29.8905C22.0308 29.7147 21.9077 29.5017 21.8198 29.2516C21.7338 28.9995 21.6908 28.7142 21.6908 28.3957V28.0645C21.6908 27.746 21.7279 27.4617 21.8022 27.2116C21.8784 26.9614 21.9898 26.7494 22.1363 26.5755C22.2829 26.3997 22.4626 26.2668 22.6756 26.1769C22.8886 26.0851 23.1329 26.0391 23.4084 26.0391C23.7347 26.0391 24.0073 26.0958 24.2262 26.2091C24.447 26.3205 24.6189 26.4749 24.742 26.6723C24.8671 26.8696 24.9472 27.0943 24.9824 27.3464H24.4167C24.3913 27.192 24.3405 27.0513 24.2643 26.9243C24.19 26.7973 24.0835 26.6957 23.9448 26.6195C23.806 26.5413 23.6272 26.5023 23.4084 26.5023C23.211 26.5023 23.0401 26.5384 22.8955 26.6107C22.7509 26.683 22.6317 26.7866 22.5379 26.9214C22.4441 27.0562 22.3737 27.2194 22.3268 27.4109C22.2819 27.6024 22.2594 27.8183 22.2594 28.0586V28.3957C22.2594 28.6419 22.2877 28.8617 22.3444 29.0552C22.403 29.2486 22.4861 29.4138 22.5936 29.5505C22.701 29.6854 22.829 29.788 22.9775 29.8583C23.128 29.9286 23.2941 29.9638 23.4758 29.9638C23.6771 29.9638 23.8402 29.9472 23.9653 29.914C24.0903 29.8788 24.188 29.8378 24.2584 29.7909C24.3287 29.742 24.3825 29.6961 24.4196 29.6531V28.6976H23.4318V28.2404H24.9824Z" fill="#303030"/>
<path d="M33.998 29.9052V30.3654H31.7382V29.9052H33.998ZM31.8525 26.0978V30.3654H31.2868V26.0978H31.8525ZM33.699 27.9326V28.3928H31.7382V27.9326H33.699ZM33.9687 26.0978V26.5609H31.7382V26.0978H33.9687Z" fill="#303030"/>
<path d="M41.7006 26.0978V30.3654H41.1437V26.0978H41.7006ZM43.0723 26.0978V26.5609H39.7749V26.0978H43.0723Z" fill="#303030"/>
<path d="M51.8593 27.9326V28.3928H49.5496V27.9326H51.8593ZM49.6376 26.0978V30.3654H49.0719V26.0978H49.6376ZM52.3517 26.0978V30.3654H51.789V26.0978H52.3517Z" fill="#303030"/>
<path d="M61.4348 29.9052V30.3654H59.175V29.9052H61.4348ZM59.2893 26.0978V30.3654H58.7236V26.0978H59.2893ZM61.1358 27.9326V28.3928H59.175V27.9326H61.1358ZM61.4055 26.0978V26.5609H59.175V26.0978H61.4055Z" fill="#303030"/>
<path d="M67.5018 26.0978H68.9146C69.235 26.0978 69.5057 26.1466 69.7265 26.2443C69.9492 26.342 70.1183 26.4866 70.2335 26.6781C70.3508 26.8677 70.4094 27.1012 70.4094 27.3786C70.4094 27.574 70.3694 27.7528 70.2892 27.915C70.2111 28.0752 70.0977 28.212 69.9492 28.3254C69.8027 28.4367 69.6268 28.5198 69.4216 28.5745L69.2634 28.6361H67.9356L67.9297 28.1759H68.9322C69.1354 28.1759 69.3044 28.1407 69.4392 28.0704C69.5741 27.9981 69.6757 27.9013 69.7441 27.7802C69.8125 27.659 69.8466 27.5252 69.8466 27.3786C69.8466 27.2145 69.8144 27.0709 69.7499 26.9478C69.6854 26.8247 69.5838 26.7299 69.4451 26.6635C69.3083 26.5951 69.1315 26.5609 68.9146 26.5609H68.0675V30.3654H67.5018V26.0978ZM69.9961 30.3654L68.9585 28.4309L69.5477 28.428L70.5999 30.3302V30.3654H69.9961Z" fill="#303030"/>
<path d="M84.5454 29.0757L85.3924 26.0978H85.8028L85.5654 27.2555L84.6538 30.3654H84.2464L84.5454 29.0757ZM83.669 26.0978L84.3431 29.0171L84.5454 30.3654H84.1409L83.1062 26.0978H83.669ZM86.899 29.0142L87.5585 26.0978H88.1242L87.0924 30.3654H86.688L86.899 29.0142ZM85.8643 26.0978L86.688 29.0757L86.9869 30.3654H86.5795L85.7002 27.2555L85.4598 26.0978H85.8643Z" fill="#303030"/>
<path d="M96.8291 29.9052V30.3654H94.5693V29.9052H96.8291ZM94.6836 26.0978V30.3654H94.1179V26.0978H94.6836ZM96.5302 27.9326V28.3928H94.5693V27.9326H96.5302ZM96.7998 26.0978V26.5609H94.5693V26.0978H96.7998Z" fill="#303030"/>
<path d="M112.905 28.2404V29.8026C112.853 29.8808 112.769 29.9687 112.653 30.0664C112.538 30.1622 112.379 30.2462 112.176 30.3185C111.974 30.3888 111.714 30.424 111.396 30.424C111.136 30.424 110.897 30.3791 110.678 30.2892C110.461 30.1973 110.272 30.0645 110.112 29.8905C109.954 29.7147 109.831 29.5017 109.743 29.2516C109.657 28.9995 109.614 28.7142 109.614 28.3957V28.0645C109.614 27.746 109.651 27.4617 109.725 27.2116C109.801 26.9614 109.913 26.7494 110.059 26.5755C110.206 26.3997 110.386 26.2668 110.599 26.1769C110.812 26.0851 111.056 26.0391 111.331 26.0391C111.658 26.0391 111.93 26.0958 112.149 26.2091C112.37 26.3205 112.542 26.4749 112.665 26.6723C112.79 26.8696 112.87 27.0943 112.905 27.3464H112.34C112.314 27.192 112.264 27.0513 112.187 26.9243C112.113 26.7973 112.007 26.6957 111.868 26.6195C111.729 26.5413 111.55 26.5023 111.331 26.5023C111.134 26.5023 110.963 26.5384 110.819 26.6107C110.674 26.683 110.555 26.7866 110.461 26.9214C110.367 27.0562 110.297 27.2194 110.25 27.4109C110.205 27.6024 110.182 27.8183 110.182 28.0586V28.3957C110.182 28.6419 110.211 28.8617 110.267 29.0552C110.326 29.2486 110.409 29.4138 110.517 29.5505C110.624 29.6854 110.752 29.788 110.901 29.8583C111.051 29.9286 111.217 29.9638 111.399 29.9638C111.6 29.9638 111.763 29.9472 111.888 29.914C112.013 29.8788 112.111 29.8378 112.181 29.7909C112.252 29.742 112.306 29.6961 112.343 29.6531V28.6976H111.355V28.2404H112.905Z" fill="#303030"/>
<path d="M119.21 26.0978H120.623C120.943 26.0978 121.214 26.1466 121.435 26.2443C121.657 26.342 121.826 26.4866 121.942 26.6781C122.059 26.8677 122.117 27.1012 122.117 27.3786C122.117 27.574 122.077 27.7528 121.997 27.915C121.919 28.0752 121.806 28.212 121.657 28.3254C121.511 28.4367 121.335 28.5198 121.13 28.5745L120.971 28.6361H119.644L119.638 28.1759H120.64C120.843 28.1759 121.012 28.1407 121.147 28.0704C121.282 27.9981 121.384 27.9013 121.452 27.7802C121.52 27.659 121.555 27.5252 121.555 27.3786C121.555 27.2145 121.522 27.0709 121.458 26.9478C121.393 26.8247 121.292 26.7299 121.153 26.6635C121.016 26.5951 120.84 26.5609 120.623 26.5609H119.776V30.3654H119.21V26.0978ZM121.704 30.3654L120.667 28.4309L121.256 28.428L122.308 30.3302V30.3654H121.704Z" fill="#303030"/>
<path d="M131.561 28.0967V28.3664C131.561 28.6869 131.521 28.9741 131.441 29.2281C131.361 29.4822 131.245 29.6981 131.095 29.8759C130.945 30.0537 130.764 30.1895 130.553 30.2833C130.344 30.3771 130.109 30.424 129.849 30.424C129.597 30.424 129.366 30.3771 129.155 30.2833C128.946 30.1895 128.764 30.0537 128.609 29.8759C128.457 29.6981 128.339 29.4822 128.255 29.2281C128.171 28.9741 128.129 28.6869 128.129 28.3664V28.0967C128.129 27.7763 128.17 27.49 128.252 27.2379C128.336 26.9839 128.454 26.768 128.607 26.5902C128.759 26.4104 128.94 26.2736 129.149 26.1798C129.36 26.086 129.591 26.0391 129.843 26.0391C130.103 26.0391 130.338 26.086 130.547 26.1798C130.758 26.2736 130.939 26.4104 131.089 26.5902C131.242 26.768 131.358 26.9839 131.438 27.2379C131.52 27.49 131.561 27.7763 131.561 28.0967ZM131.001 28.3664V28.0909C131.001 27.8369 130.975 27.6121 130.922 27.4167C130.871 27.2213 130.796 27.0572 130.696 26.9243C130.597 26.7914 130.475 26.6908 130.33 26.6224C130.187 26.554 130.025 26.5198 129.843 26.5198C129.668 26.5198 129.508 26.554 129.366 26.6224C129.225 26.6908 129.104 26.7914 129.002 26.9243C128.903 27.0572 128.825 27.2213 128.771 27.4167C128.716 27.6121 128.689 27.8369 128.689 28.0909V28.3664C128.689 28.6224 128.716 28.849 128.771 29.0464C128.825 29.2418 128.904 29.4069 129.005 29.5418C129.109 29.6746 129.231 29.7753 129.372 29.8436C129.514 29.912 129.673 29.9462 129.849 29.9462C130.033 29.9462 130.196 29.912 130.339 29.8436C130.481 29.7753 130.602 29.6746 130.699 29.5418C130.799 29.4069 130.874 29.2418 130.925 29.0464C130.976 28.849 131.001 28.6224 131.001 28.3664Z" fill="#303030"/>
<path d="M138.897 29.0757L139.744 26.0978H140.155L139.917 27.2555L139.006 30.3654H138.598L138.897 29.0757ZM138.021 26.0978L138.695 29.0171L138.897 30.3654H138.493L137.458 26.0978H138.021ZM141.251 29.0142L141.91 26.0978H142.476L141.444 30.3654H141.04L141.251 29.0142ZM140.216 26.0978L141.04 29.0757L141.339 30.3654H140.931L140.052 27.2555L139.812 26.0978H140.216Z" fill="#303030"/>
</g>
<path d="M101.835 5.10077C105.692 5.10077 108.818 8.22716 108.818 12.0837C108.818 15.9403 105.692 19.0667 101.835 19.0667C97.9787 19.0667 94.8523 15.9403 94.8523 12.0838C94.8523 8.22716 97.9787 5.10077 101.835 5.10077ZM101.835 15.5807C103.767 15.5807 105.332 14.015 105.332 12.0838C105.332 10.1525 103.767 8.58684 101.835 8.58684C99.904 8.58684 98.3384 10.1525 98.3384 12.0838C98.3384 14.015 99.904 15.5807 101.835 15.5807Z" fill="#E17D08"/>
<path d="M114.479 0.128061V18.6213H110.764V0.128061H114.479Z" fill="#E17D08"/>
<path d="M120.851 0.128061V18.6213H117.136V0.128061H120.851Z" fill="#E17D08"/>
<path d="M122.807 14.0376C122.807 11.1126 124.938 9.6501 129.199 9.6501C130.199 9.6501 131.199 9.74355 132.199 9.93045V8.82307C132.199 7.50543 131.25 6.8466 129.353 6.8466C127.746 6.8466 125.961 7.08023 123.998 7.54748V4.60381C125.961 4.13656 127.746 3.90293 129.353 3.90293C133.727 3.90293 135.913 5.51961 135.913 8.75298V18.6213H133.755L132.437 17.3036C131.157 18.1821 129.746 18.6213 128.204 18.6213C124.606 18.6213 122.807 17.0934 122.807 14.0376ZM132.199 12.4536C131.264 12.2667 130.264 12.1732 129.199 12.1732C127.414 12.1732 126.522 12.7807 126.522 13.9955C126.522 15.3038 127.269 15.958 128.764 15.958C129.998 15.958 131.143 15.5748 132.199 14.8085V12.4536Z" fill="#E17D08"/>
<path d="M138.57 18.6213V3.90293H141.444L141.907 5.78128C143.196 4.52905 144.561 3.90293 146 3.90293V6.90267C144.617 6.90267 143.378 7.47739 142.285 8.62682V18.6213H138.57Z" fill="#E17D08"/>
<path d="M94.2722 17.8962C92.8254 18.6656 91.2043 19.048 89.5662 19.0061C87.9281 18.9643 86.3287 18.4996 84.9231 17.6573C83.5176 16.8149 82.3537 15.6235 81.5444 14.1986C80.7352 12.7738 80.308 11.1639 80.3045 9.52525C80.3009 7.88662 80.7211 6.2749 81.5241 4.84655C82.3272 3.41819 83.4859 2.22172 84.8878 1.37327C86.2897 0.524827 87.8871 0.0532274 89.525 0.0042536C91.1629 -0.0447202 92.7856 0.330595 94.2357 1.09377L92.5245 4.34509C91.635 3.87693 90.6395 3.6467 89.6348 3.67674C88.63 3.70678 87.6501 3.99608 86.7902 4.51655C85.9302 5.03702 85.2194 5.77098 84.7268 6.64718C84.2341 7.52339 83.9764 8.51208 83.9786 9.51727C83.9808 10.5225 84.2428 11.51 84.7392 12.3841C85.2357 13.2581 85.9496 13.989 86.8118 14.5057C87.6741 15.0225 88.6552 15.3075 89.6601 15.3332C90.665 15.3589 91.6594 15.1243 92.5469 14.6523L94.2722 17.8962Z" fill="#E17D08"/>
<path d="M16.4941 18.6214V3.90301H19.3677L19.8302 5.78135C21.1198 4.52912 22.4842 3.90301 23.9233 3.90301V6.90275C22.5403 6.90275 21.3021 7.47747 20.2087 8.6269V18.6214H16.4941Z" fill="#2B455E"/>
<path d="M31.6616 3.90301C36.1285 3.90301 38.3619 6.18319 38.3619 10.7435C38.3619 11.351 38.3199 11.9584 38.2357 12.5658H28.4656C28.4656 14.6404 29.9888 15.6777 33.0353 15.6777C34.5211 15.6777 36.007 15.5375 37.4928 15.2572V18.2008C36.1939 18.4812 34.6146 18.6214 32.7549 18.6214C27.4189 18.6214 24.7509 16.1122 24.7509 11.094C24.7509 6.3 27.0545 3.90301 31.6616 3.90301ZM28.4656 9.9866H34.7454V9.87446C34.7454 7.83725 33.7174 6.81865 31.6616 6.81865C29.6991 6.81865 28.6338 7.87463 28.4656 9.9866Z" fill="#2B455E"/>
<path d="M39.8764 14.0377C39.8764 11.1127 42.007 9.65018 46.2683 9.65018C47.2682 9.65018 48.2682 9.74363 49.2681 9.93053V8.82315C49.2681 7.5055 48.3196 6.84668 46.4225 6.84668C44.8152 6.84668 43.0303 7.08031 41.0678 7.54756V4.60388C43.0303 4.13664 44.8152 3.90301 46.4225 3.90301C50.796 3.90301 52.9827 5.51969 52.9827 8.75306V18.6214H50.824L49.5064 17.3037C48.2261 18.1822 46.815 18.6214 45.2731 18.6214C41.6753 18.6214 39.8764 17.0935 39.8764 14.0377ZM49.2681 12.4537C48.3336 12.2668 47.3337 12.1733 46.2683 12.1733C44.4834 12.1733 43.591 12.7808 43.591 13.9956C43.591 15.3039 44.3386 15.958 45.8338 15.958C47.0673 15.958 48.2121 15.5749 49.2681 14.8086V12.4537Z" fill="#2B455E"/>
<path d="M55.9269 18.6214V3.90301H58.8005L59.2351 6.03367C60.5527 4.61323 62.1367 3.90301 63.987 3.90301C65.8373 3.90301 67.1035 4.57585 67.7857 5.92153C69.2903 4.57585 70.8649 3.90301 72.5096 3.90301C75.8925 3.90301 77.5839 5.76734 77.5839 9.49599V18.6214H73.8693V9.35581C73.8693 7.72044 73.1311 6.90275 71.6546 6.90275C70.5518 6.90275 69.4912 7.39804 68.4726 8.38861V18.6214H64.758V9.39786C64.758 7.73446 64.0758 6.90275 62.7114 6.90275C61.6274 6.90275 60.6041 7.39804 59.6416 8.38861V18.6214H55.9269Z" fill="#2B455E"/>
<path d="M13.9677 17.8962C12.5209 18.6656 10.8998 19.048 9.26175 19.0061C7.62365 18.9643 6.0242 18.4996 4.61865 17.6573C3.2131 16.8149 2.04921 15.6235 1.23995 14.1986C0.430683 12.7738 0.00354166 11.1639 -1.46485e-05 9.52525C-0.00357102 7.88662 0.416578 6.2749 1.21965 4.84655C2.02272 3.41819 3.18143 2.22172 4.58331 1.37327C5.98519 0.524827 7.58261 0.0532274 9.22051 0.0042536C10.8584 -0.0447202 12.4812 0.330595 13.9312 1.09377L12.22 4.34509C11.3305 3.87693 10.3351 3.6467 9.33032 3.67674C8.32557 3.70678 7.34565 3.99608 6.48569 4.51655C5.62572 5.03702 4.91493 5.77098 4.42229 6.64718C3.92966 7.52339 3.67192 8.51208 3.67411 9.51727C3.67629 10.5225 3.93831 11.51 4.43474 12.3841C4.93118 13.2581 5.64515 13.989 6.50737 14.5057C7.36958 15.0225 8.35074 15.3075 9.35562 15.3332C10.3605 15.3589 11.3549 15.1243 12.2424 14.6523L13.9677 17.8962Z" fill="#2B455E"/>
</svg>
