<svg width="256" height="36" viewBox="0 0 256 36" fill="none" xmlns="http://www.w3.org/2000/svg">
<g style="mix-blend-mode:luminosity">
<path d="M193.611 11.1444C199.06 11.1444 203.476 15.5609 203.476 21.009C203.476 26.4571 199.06 30.8737 193.611 30.8737C188.163 30.8737 183.747 26.4571 183.747 21.009C183.747 15.5609 188.163 11.1444 193.611 11.1444ZM193.611 25.949C196.34 25.949 198.551 23.7373 198.551 21.009C198.551 18.2808 196.34 16.0691 193.611 16.0691C190.883 16.0691 188.671 18.2808 188.671 21.009C188.671 23.7373 190.883 25.949 193.611 25.949Z" fill="#E17D08"/>
<path d="M211.472 4.11975V30.2446H206.224V4.11975H211.472Z" fill="#E17D08"/>
<path d="M220.473 4.11975V30.2446H215.226V4.11975H220.473Z" fill="#E17D08"/>
<path d="M223.237 23.7693C223.237 19.6373 226.247 17.5712 232.266 17.5712C233.679 17.5712 235.092 17.7032 236.504 17.9673V16.4029C236.504 14.5415 235.164 13.6108 232.484 13.6108C230.214 13.6108 227.692 13.9409 224.92 14.6009V10.4425C227.692 9.78243 230.214 9.45239 232.484 9.45239C238.663 9.45239 241.752 11.7362 241.752 16.3039V30.2446H238.702L236.841 28.3832C235.032 29.6241 233.039 30.2446 230.861 30.2446C225.778 30.2446 223.237 28.0861 223.237 23.7693ZM236.504 21.5316C235.184 21.2676 233.771 21.1356 232.266 21.1356C229.745 21.1356 228.484 21.9937 228.484 23.7099C228.484 25.5581 229.54 26.4822 231.653 26.4822C233.395 26.4822 235.012 25.9409 236.504 24.8584V21.5316Z" fill="#E17D08"/>
<path d="M245.505 30.2446V9.45239H249.565L250.218 12.1059C252.04 10.3369 253.967 9.45239 256 9.45239V13.69C254.047 13.69 252.297 14.5019 250.753 16.1257V30.2446H245.505Z" fill="#E17D08"/>
<path d="M182.927 29.22C180.883 30.307 178.593 30.8472 176.279 30.788C173.965 30.7289 171.705 30.0725 169.72 28.8825C167.734 27.6925 166.09 26.0095 164.947 23.9966C163.803 21.9838 163.2 19.7095 163.195 17.3947C163.19 15.0798 163.783 12.803 164.918 10.7852C166.052 8.76744 167.689 7.07722 169.67 5.87865C171.65 4.68007 173.907 4.01386 176.22 3.94468C178.534 3.87549 180.827 4.40569 182.875 5.4838L180.458 10.0768C179.201 9.41549 177.795 9.09025 176.376 9.13269C174.956 9.17513 173.572 9.58381 172.357 10.3191C171.142 11.0543 170.138 12.0911 169.442 13.3289C168.746 14.5667 168.382 15.9634 168.385 17.3834C168.388 18.8034 168.758 20.1985 169.46 21.4333C170.161 22.668 171.17 23.7005 172.388 24.4305C173.606 25.1605 174.992 25.5631 176.411 25.5994C177.831 25.6357 179.236 25.3043 180.489 24.6375L182.927 29.22Z" fill="#E17D08"/>
<path d="M73.0527 30.2441V9.45194H77.1121L77.7656 12.1054C79.5874 10.3364 81.5148 9.45194 83.5478 9.45194V13.6896C81.594 13.6896 79.8448 14.5015 78.3002 16.1252V30.2441H73.0527Z" fill="white"/>
<path d="M94.4793 9.45194C100.79 9.45194 103.945 12.6731 103.945 19.1153C103.945 19.9734 103.885 20.8315 103.766 21.6896H89.9644C89.9644 24.6203 92.1163 26.0857 96.4199 26.0857C98.5189 26.0857 100.618 25.8877 102.717 25.4916V29.65C100.882 30.0461 98.6509 30.2441 96.0239 30.2441C88.4859 30.2441 84.7169 26.6995 84.7169 19.6104C84.7169 12.8381 87.971 9.45194 94.4793 9.45194ZM89.9644 18.046H98.8358V17.8876C98.8358 15.0097 97.3836 13.5708 94.4793 13.5708C91.707 13.5708 90.2021 15.0625 89.9644 18.046Z" fill="white"/>
<path d="M106.084 23.7688C106.084 19.6368 109.094 17.5708 115.114 17.5708C116.526 17.5708 117.939 17.7028 119.351 17.9668V16.4025C119.351 14.5411 118.012 13.6104 115.332 13.6104C113.061 13.6104 110.54 13.9404 107.767 14.6005V10.442C110.54 9.78198 113.061 9.45194 115.332 9.45194C121.51 9.45194 124.599 11.7358 124.599 16.3035V30.2441H121.55L119.688 28.3827C117.88 29.6236 115.886 30.2441 113.708 30.2441C108.625 30.2441 106.084 28.0857 106.084 23.7688ZM119.351 21.5312C118.031 21.2672 116.619 21.1352 115.114 21.1352C112.592 21.1352 111.332 21.9932 111.332 23.7094C111.332 25.5576 112.388 26.4817 114.5 26.4817C116.243 26.4817 117.86 25.9405 119.351 24.8579V21.5312Z" fill="white"/>
<path d="M128.758 30.2441V9.45194H132.818L133.432 12.4619C135.293 10.4552 137.531 9.45194 140.144 9.45194C142.758 9.45194 144.547 10.4024 145.511 12.3034C147.636 10.4024 149.861 9.45194 152.184 9.45194C156.963 9.45194 159.352 12.0856 159.352 17.353V30.2441H154.105V17.1549C154.105 14.8447 153.062 13.6896 150.976 13.6896C149.418 13.6896 147.92 14.3893 146.481 15.7886V30.2441H141.234V17.2144C141.234 14.8645 140.27 13.6896 138.342 13.6896C136.811 13.6896 135.366 14.3893 134.006 15.7886V30.2441H128.758Z" fill="white"/>
<path d="M69.4838 29.22C67.44 30.307 65.1499 30.8472 62.8359 30.788C60.5218 30.7289 58.2623 30.0725 56.2767 28.8825C54.2911 27.6925 52.6469 26.0095 51.5037 23.9966C50.3605 21.9838 49.7571 19.7095 49.7521 17.3947C49.747 15.0798 50.3406 12.803 51.475 10.7852C52.6095 8.76744 54.2464 7.07722 56.2268 5.87865C58.2072 4.68007 60.4638 4.01386 62.7776 3.94468C65.0914 3.87549 67.3838 4.40569 69.4323 5.4838L67.0149 10.0768C65.7583 9.41549 64.3521 9.09025 62.9327 9.13269C61.5133 9.17513 60.129 9.58381 58.9142 10.3191C57.6994 11.0543 56.6952 12.0911 55.9993 13.3289C55.3034 14.5667 54.9393 15.9634 54.9424 17.3834C54.9454 18.8034 55.3156 20.1985 56.0169 21.4333C56.7182 22.668 57.7268 23.7005 58.9448 24.4305C60.1628 25.1605 61.5489 25.5631 62.9685 25.5994C64.388 25.6357 65.7928 25.3043 67.0465 24.6375L69.4838 29.22Z" fill="white"/>
<g filter="url(#filter0_d_661_3644)">
<path d="M9.13444 23.8844C10.589 25.3415 12.4421 26.3337 14.4596 26.7357C16.4771 27.1377 18.5682 26.9314 20.4687 26.1429C22.3691 25.3543 23.9934 24.0189 25.1362 22.3056C26.279 20.5923 26.889 18.578 26.889 16.5174C26.889 14.4568 26.279 12.4425 25.1362 10.7292C23.9934 9.01587 22.3691 7.6805 20.4686 6.89194C18.5682 6.10339 16.4771 5.89707 14.4596 6.29907C12.4421 6.70107 10.589 7.69334 9.13444 9.1504L12.7887 12.811C13.5204 12.0779 14.4528 11.5787 15.4678 11.3765C16.4828 11.1742 17.5349 11.278 18.491 11.6747C19.4471 12.0715 20.2643 12.7433 20.8393 13.6053C21.4142 14.4673 21.7211 15.4807 21.7211 16.5174C21.7211 17.5541 21.4142 18.5675 20.8393 19.4295C20.2643 20.2915 19.4471 20.9633 18.491 21.3601C17.5349 21.7568 16.4828 21.8606 15.4678 21.6583C14.4528 21.4561 13.5204 20.9569 12.7887 20.2238L9.13444 23.8844Z" fill="#E17D08"/>
</g>
<g filter="url(#filter1_d_661_3644)">
<path fill-rule="evenodd" clip-rule="evenodd" d="M8.84129 23.8838L12.7881 19.9302L12.9346 20.077C13.6375 20.781 14.5329 21.2605 15.5077 21.4547C16.4824 21.6489 17.4928 21.5493 18.4111 21.1682C19.3293 20.7872 20.1142 20.142 20.6665 19.314C21.2187 18.4861 21.5135 17.5127 21.5135 16.5168C21.5135 15.521 21.2187 14.5476 20.6665 13.7196C20.1142 12.8917 19.3293 12.2464 18.4111 11.8654C17.4928 11.4844 16.4824 11.3847 15.5077 11.5789C14.5329 11.7732 13.6375 12.2526 12.9346 12.9567L12.7881 13.1035L8.84129 9.14982L8.98732 9.00353C10.4708 7.51749 12.3608 6.50545 14.4186 6.09543C16.4763 5.68541 18.6091 5.89585 20.5474 6.70012C22.4857 7.50439 24.1423 8.86635 25.3079 10.6137C26.4734 12.3611 27.0954 14.4154 27.0954 16.5168C27.0954 18.6183 26.4734 20.6726 25.3079 22.4199C24.1423 24.1673 22.4857 25.5293 20.5474 26.3335C18.6091 27.1378 16.4763 27.3482 14.4186 26.9382C12.3608 26.5282 10.4708 25.5162 8.98732 24.0301L8.84129 23.8838ZM9.28159 9.00473C10.7129 7.62684 12.5092 6.687 14.459 6.29849C16.4765 5.89649 18.5677 6.10281 20.4681 6.89136C22.3685 7.67992 23.9928 9.01529 25.1356 10.7286C26.2784 12.4419 26.8884 14.4562 26.8884 16.5168C26.8884 18.5774 26.2784 20.5917 25.1356 22.305C23.9928 24.0184 22.3685 25.3537 20.4681 26.1423C18.5677 26.9308 16.4765 27.1372 14.459 26.7352C12.5092 26.3466 10.7129 25.4068 9.2816 24.0289C9.24063 23.9895 9.19997 23.9497 9.1596 23.9095C9.15101 23.901 9.14243 23.8924 9.13386 23.8838L12.7881 20.2232C12.7924 20.2276 12.7967 20.2319 12.801 20.2362C13.5308 20.9622 14.4582 21.4567 15.4672 21.6578C16.4822 21.86 17.5343 21.7562 18.4904 21.3595C19.4465 20.9628 20.2637 20.2909 20.8387 19.4289C21.4137 18.5669 21.7205 17.5535 21.7205 16.5168C21.7205 15.4801 21.4137 14.4667 20.8387 13.6047C20.2637 12.7427 19.4465 12.0709 18.4904 11.6742C17.5343 11.2774 16.4822 11.1736 15.4672 11.3759C14.4581 11.577 13.5306 12.0716 12.8008 12.7977C12.7965 12.802 12.7923 12.8062 12.7881 12.8104L9.13386 9.14982C9.14249 9.14117 9.15113 9.13255 9.15978 9.12394C9.20009 9.08385 9.24069 9.04411 9.28159 9.00473Z" fill="#2B455E"/>
</g>
<path d="M10.5692 22.4474C11.7399 23.6201 13.2315 24.4188 14.8553 24.7423C16.4791 25.0659 18.1622 24.8998 19.6919 24.2651C21.2215 23.6304 22.5288 22.5556 23.4487 21.1766C24.3685 19.7976 24.8594 18.1763 24.8594 16.5178C24.8594 14.8593 24.3685 13.238 23.4487 11.859C22.5288 10.48 21.2215 9.40518 19.6919 8.77049C18.1622 8.1358 16.4791 7.96974 14.8553 8.2933C13.2315 8.61686 11.7399 9.41552 10.5692 10.5883L16.4884 16.5178L10.5692 22.4474Z" fill="#211F1F"/>
<path d="M28.1474 4.83777C25.8415 2.52781 22.9035 0.954698 19.7051 0.31738C16.5067 -0.319938 13.1914 0.00715706 10.1785 1.2573C7.16569 2.50745 4.59056 4.6245 2.77879 7.34073C0.967025 10.057 -4.92411e-07 13.2504 0 16.5172C4.92411e-07 19.784 0.967027 22.9774 2.77879 25.6936C4.59056 28.4099 7.16569 30.5269 10.1785 31.7771C13.1914 33.0272 16.5067 33.3543 19.7051 32.717C22.9035 32.0797 25.8415 30.5065 28.1474 28.1966L16.4884 16.5172L28.1474 4.83777Z" fill="#E17D08"/>
<path d="M11.6687 16.5172C11.6687 13.57 14.0537 11.1809 16.9957 11.1809C19.9377 11.1809 22.3227 13.57 22.3227 16.5172C22.3227 19.4643 19.9377 21.8535 16.9957 21.8535C14.0537 21.8535 11.6687 19.4643 11.6687 16.5172Z" fill="#E17D08"/>
<g filter="url(#filter2_d_661_3644)">
<path d="M9.13444 23.8844C10.589 25.3415 12.4421 26.3337 14.4596 26.7357C16.4771 27.1377 18.5682 26.9314 20.4687 26.1429C22.3691 25.3543 23.9934 24.0189 25.1362 22.3056C26.279 20.5923 26.889 18.578 26.889 16.5174C26.889 14.4568 26.279 12.4425 25.1362 10.7292C23.9934 9.01587 22.3691 7.6805 20.4686 6.89194C18.5682 6.10339 16.4771 5.89707 14.4596 6.29907C12.4421 6.70107 10.589 7.69334 9.13444 9.1504L12.7887 12.811C13.5204 12.0779 14.4528 11.5787 15.4678 11.3765C16.4828 11.1742 17.5349 11.278 18.491 11.6747C19.4471 12.0715 20.2643 12.7433 20.8393 13.6053C21.4142 14.4673 21.7211 15.4807 21.7211 16.5174C21.7211 17.5541 21.4142 18.5675 20.8393 19.4295C20.2643 20.2915 19.4471 20.9633 18.491 21.3601C17.5349 21.7568 16.4828 21.8606 15.4678 21.6583C14.4528 21.4561 13.5204 20.9569 12.7887 20.2238L9.13444 23.8844Z" fill="white"/>
</g>
<path d="M11.1204 15.5885C11.1204 13.3014 12.9744 11.4474 15.2615 11.4474H17.6333C19.9204 11.4474 21.7744 13.3014 21.7744 15.5885V17.9603C21.7744 20.2473 19.9204 22.1014 17.6333 22.1014H15.2615C12.9744 22.1014 11.1204 20.2473 11.1204 17.9603V15.5885Z" fill="#2B455E"/>
<path fill-rule="evenodd" clip-rule="evenodd" d="M38.5127 32.7144L38.5127 0.827865L38.7198 0.827865L38.7198 32.7144L38.5127 32.7144Z" fill="black"/>
</g>
<defs>
<filter id="filter0_d_661_3644" x="5.12669" y="6.09887" width="25.7705" height="28.8535" filterUnits="userSpaceOnUse" color-interpolation-filters="sRGB">
<feFlood flood-opacity="0" result="BackgroundImageFix"/>
<feColorMatrix in="SourceAlpha" type="matrix" values="0 0 0 0 0 0 0 0 0 0 0 0 0 0 0 0 0 0 127 0" result="hardAlpha"/>
<feOffset dy="4"/>
<feGaussianBlur stdDeviation="2"/>
<feComposite in2="hardAlpha" operator="out"/>
<feColorMatrix type="matrix" values="0 0 0 0 0 0 0 0 0 0 0 0 0 0 0 0 0 0 0.25 0"/>
<feBlend mode="normal" in2="BackgroundImageFix" result="effect1_dropShadow_661_3644"/>
<feBlend mode="normal" in="SourceGraphic" in2="effect1_dropShadow_661_3644" result="shape"/>
</filter>
<filter id="filter1_d_661_3644" x="4.83312" y="5.89123" width="26.2705" height="29.2676" filterUnits="userSpaceOnUse" color-interpolation-filters="sRGB">
<feFlood flood-opacity="0" result="BackgroundImageFix"/>
<feColorMatrix in="SourceAlpha" type="matrix" values="0 0 0 0 0 0 0 0 0 0 0 0 0 0 0 0 0 0 127 0" result="hardAlpha"/>
<feOffset dy="4"/>
<feGaussianBlur stdDeviation="2"/>
<feComposite in2="hardAlpha" operator="out"/>
<feColorMatrix type="matrix" values="0 0 0 0 0 0 0 0 0 0 0 0 0 0 0 0 0 0 0.25 0"/>
<feBlend mode="normal" in2="BackgroundImageFix" result="effect1_dropShadow_661_3644"/>
<feBlend mode="normal" in="SourceGraphic" in2="effect1_dropShadow_661_3644" result="shape"/>
</filter>
<filter id="filter2_d_661_3644" x="5.12669" y="6.09887" width="25.7705" height="28.8535" filterUnits="userSpaceOnUse" color-interpolation-filters="sRGB">
<feFlood flood-opacity="0" result="BackgroundImageFix"/>
<feColorMatrix in="SourceAlpha" type="matrix" values="0 0 0 0 0 0 0 0 0 0 0 0 0 0 0 0 0 0 127 0" result="hardAlpha"/>
<feOffset dy="4"/>
<feGaussianBlur stdDeviation="2"/>
<feComposite in2="hardAlpha" operator="out"/>
<feColorMatrix type="matrix" values="0 0 0 0 0 0 0 0 0 0 0 0 0 0 0 0 0 0 0.25 0"/>
<feBlend mode="normal" in2="BackgroundImageFix" result="effect1_dropShadow_661_3644"/>
<feBlend mode="normal" in="SourceGraphic" in2="effect1_dropShadow_661_3644" result="shape"/>
</filter>
</defs>
</svg>
