<svg width="149" height="28" viewBox="0 0 149 28" fill="none" xmlns="http://www.w3.org/2000/svg">
<path d="M0 2.00572C0 0.898625 0.927195 0 2.07016 0H25.9404C27.0838 0 28.0106 0.898625 28.0106 2.00572V25.9946C28.0106 27.102 27.0838 28 25.9404 28H2.07016C0.927304 28 0 27.1021 0 25.9949V2.00539V2.00572Z" fill="#4D4D4D"/>
<path d="M10.0337 20.3974V11.0189H6.91526V20.3974H10.034H10.0337ZM8.47514 9.73864C9.56239 9.73864 10.2393 9.01848 10.2393 8.11848C10.2189 7.19797 9.56239 6.49791 8.49582 6.49791C7.42852 6.49791 6.73145 7.19797 6.73145 8.1184C6.73145 9.01839 7.40808 9.73856 8.45471 9.73856H8.4749L8.47514 9.73864ZM11.7598 20.3974H14.8781V15.1606C14.8781 14.8807 14.8984 14.6 14.9808 14.4001C15.2061 13.8398 15.7192 13.2599 16.5809 13.2599C17.709 13.2599 18.1605 14.1198 18.1605 15.3807V20.3974H21.2787V15.0201C21.2787 12.1395 19.7405 10.799 17.6888 10.799C16.0067 10.799 15.268 11.7388 14.8575 12.3789H14.8783V11.0192H11.76C11.8007 11.899 11.7598 20.3978 11.7598 20.3978L11.7598 20.3974Z" fill="#F5F7FA"/>
<path d="M40.0107 2.00572C40.0107 0.898625 40.9379 0 42.0809 0H65.9512C67.0946 0 68.0213 0.898625 68.0213 2.00572V25.9946C68.0213 27.102 67.0946 28 65.9512 28H42.0809C40.938 28 40.0107 27.1021 40.0107 25.9949V2.00539V2.00572Z" fill="#4D4D4D"/>
<path d="M50.0445 20.3974V11.0189H46.926V20.3974H50.0448H50.0445ZM48.4859 9.73864C49.5731 9.73864 50.25 9.01848 50.25 8.11848C50.2297 7.19797 49.5731 6.49791 48.5066 6.49791C47.4393 6.49791 46.7422 7.19797 46.7422 8.1184C46.7422 9.01839 47.4188 9.73856 48.4654 9.73856H48.4856L48.4859 9.73864ZM51.7706 20.3974H54.8888V15.1606C54.8888 14.8807 54.9091 14.6 54.9915 14.4001C55.2169 13.8398 55.73 13.2599 56.5916 13.2599C57.7197 13.2599 58.1713 14.1198 58.1713 15.3807V20.3974H61.2894V15.0201C61.2894 12.1395 59.7512 10.799 57.6995 10.799C56.0175 10.799 55.2787 11.7388 54.8683 12.3789H54.889V11.0192H51.7707C51.8114 11.899 51.7705 20.3978 51.7705 20.3978L51.7706 20.3974Z" fill="#F5F7FA"/>
<path d="M80.0215 2.00572C80.0215 0.898625 80.9487 0 82.0916 0H105.962C107.105 0 108.032 0.898625 108.032 2.00572V25.9946C108.032 27.102 107.105 28 105.962 28H82.0916C80.9488 28 80.0215 27.1021 80.0215 25.9949V2.00539V2.00572Z" fill="#4D4D4D"/>
<path d="M90.0552 20.3974V11.0189H86.9367V20.3974H90.0555H90.0552ZM88.4966 9.73864C89.5839 9.73864 90.2608 9.01848 90.2608 8.11848C90.2404 7.19797 89.5839 6.49791 88.5173 6.49791C87.45 6.49791 86.7529 7.19797 86.7529 8.1184C86.7529 9.01839 87.4296 9.73856 88.4762 9.73856H88.4964L88.4966 9.73864ZM91.7813 20.3974H94.8995V15.1606C94.8995 14.8807 94.9199 14.6 95.0023 14.4001C95.2276 13.8398 95.7407 13.2599 96.6024 13.2599C97.7305 13.2599 98.182 14.1198 98.182 15.3807V20.3974H101.3V15.0201C101.3 12.1395 99.7619 10.799 97.7103 10.799C96.0282 10.799 95.2895 11.7388 94.879 12.3789H94.8998V11.0192H91.7815C91.8222 11.899 91.7812 20.3978 91.7812 20.3978L91.7813 20.3974Z" fill="#F5F7FA"/>
<path d="M120.032 2.00572C120.032 0.898625 120.959 0 122.102 0H145.973C147.116 0 148.043 0.898625 148.043 2.00572V25.9946C148.043 27.102 147.116 28 145.973 28H122.102C120.96 28 120.032 27.1021 120.032 25.9949V2.00539V2.00572Z" fill="#4D4D4D"/>
<path d="M130.066 20.3974V11.0189H126.947V20.3974H130.066H130.066ZM128.507 9.73864C129.595 9.73864 130.271 9.01848 130.271 8.11848C130.251 7.19797 129.595 6.49791 128.528 6.49791C127.461 6.49791 126.764 7.19797 126.764 8.1184C126.764 9.01839 127.44 9.73856 128.487 9.73856H128.507L128.507 9.73864ZM131.792 20.3974H134.91V15.1606C134.91 14.8807 134.931 14.6 135.013 14.4001C135.238 13.8398 135.751 13.2599 136.613 13.2599C137.741 13.2599 138.193 14.1198 138.193 15.3807V20.3974H141.311V15.0201C141.311 12.1395 139.773 10.799 137.721 10.799C136.039 10.799 135.3 11.7388 134.89 12.3789H134.911V11.0192H131.792C131.833 11.899 131.792 20.3978 131.792 20.3978L131.792 20.3974Z" fill="#F5F7FA"/>
</svg>
