<svg width="60" height="60" viewBox="0 0 60 60" fill="none" xmlns="http://www.w3.org/2000/svg">
<g clip-path="url(#clip0_661_2896)">
<path d="M23.5791 51.9072C23.7148 51.9697 23.8579 52 23.9995 52C24.313 52 24.6186 51.8525 24.8115 51.5845L42.8115 26.5845C43.0307 26.2798 43.061 25.8779 42.8901 25.5439C42.7187 25.2099 42.3755 25 42 25H33.04L36.9702 9.24218C37.0864 8.77685 36.8559 8.29443 36.4209 8.09277C35.9834 7.8916 35.4678 8.02588 35.1885 8.41552L17.1885 33.4155C16.9692 33.7202 16.9389 34.1221 17.1098 34.456C17.2812 34.79 17.6245 35 18 35H26.9599L23.0298 50.7578C22.9135 51.2231 23.144 51.7056 23.5791 51.9072ZM29.2104 34.2422C29.2851 33.9433 29.2177 33.6269 29.0283 33.3843C28.8388 33.1416 28.5478 33 28.2402 33H19.9521L33.77 13.8086L30.7895 25.7578C30.7148 26.0566 30.7822 26.373 30.9716 26.6157C31.1611 26.8584 31.4521 27 31.7597 27H40.0478L26.23 46.1914L29.2104 34.2422Z" fill="#828282"/>
<path d="M59 29C58.4478 29 58 29.4477 58 30C58 45.4394 45.4394 58 30 58C21.7328 58 13.8674 54.292 8.57031 48H14C14.5522 48 15 47.5522 15 47C15 46.4478 14.5522 46 14 46H6C5.44775 46 5 46.4478 5 47V55C5 55.5522 5.44775 56 6 56C6.55225 56 7 55.5522 7 55V49.2407C12.6752 56.0098 21.1213 60 30 60C46.542 60 60 46.542 60 30C60 29.4477 59.5522 29 59 29Z" fill="#E17F0D"/>
<path d="M45 13C45 13.5522 45.4478 14 46 14H54C54.5522 14 55 13.5522 55 13V5C55 4.44775 54.5522 4 54 4C53.4478 4 53 4.44775 53 5V10.7593C47.3248 3.99023 38.8787 0 30 0C13.458 0 0 13.458 0 30C0 30.5522 0.44775 31 1 31C1.55225 31 2 30.5522 2 30C2 14.5605 14.5605 2 30 2C38.2672 2 46.1326 5.70801 51.4297 12H46C45.4478 12 45 12.4478 45 13Z" fill="#E17F0D"/>
</g>
<defs>
<clipPath id="clip0_661_2896">
<rect width="60" height="60" fill="white"/>
</clipPath>
</defs>
</svg>
