<svg width="78" height="71" viewBox="0 0 78 71" fill="none" xmlns="http://www.w3.org/2000/svg">
<path d="M51.268 48.8719C49.9189 48.8719 48.8326 47.7622 48.8326 46.3842C48.8326 45.0056 49.9189 43.896 51.268 43.896C52.6171 43.896 53.7034 45.0056 53.7034 46.3842C53.7034 47.7622 52.6171 48.8719 51.268 48.8719ZM29.5317 36.6011C30.7934 36.9449 31.3031 34.9864 30.0436 34.6432L25.8431 33.4944C24.5814 33.1506 24.0723 35.1091 25.3317 35.4523L29.5317 36.6011ZM36.1514 31.043C35.8148 32.3318 37.7322 32.8523 38.0682 31.5659L39.1934 27.2758C39.53 25.9871 37.6126 25.4671 37.2766 26.7535L36.1514 31.043ZM31.7157 32.4233C32.3674 33.5733 34.0841 32.5598 33.4318 31.4075L31.2574 27.5608C30.6051 26.4103 28.8885 27.4244 29.5413 28.5761L31.7157 32.4233ZM17.2869 23.0566C17.2869 24.3914 19.2736 24.3914 19.2736 23.0566C19.2736 22.1939 19.9597 21.4931 20.8042 21.4931C22.1115 21.4931 22.1115 19.4633 20.8042 19.4633C18.8626 19.4633 17.2869 21.0728 17.2869 23.0566ZM19.2048 27.1192C17.5851 26.4529 16.5185 24.848 16.5185 23.0566C16.5185 20.6386 18.4375 18.6784 20.8042 18.6784C23.1714 18.6784 25.0904 20.6386 25.0904 23.0566C25.0904 24.848 24.0233 26.4529 22.4041 27.1192H19.2048ZM17.3929 28.4344V49.8865C17.3929 50.4474 17.8377 50.9017 18.3862 50.9017H23.2227C23.7718 50.9017 24.2166 50.4474 24.2166 49.8865V47.2566L26.9999 47.271C27.412 49.3723 29.2324 50.9017 31.3369 50.9017C33.4267 50.9017 35.2353 49.3971 35.6654 47.3154L46.9524 47.3729C47.404 49.4258 49.2013 50.9017 51.268 50.9017C53.3201 50.9017 55.1055 49.4494 55.574 47.4173L58.8731 47.438C59.4216 47.438 59.8664 46.9837 59.8664 46.4228V37.5173C59.8664 36.957 59.4216 36.5026 58.8731 36.5026H56.1682L52.0973 31.4881C51.9157 31.2423 51.6277 31.0833 51.3035 31.0833H41.0803C40.9134 31.0845 40.7432 31.1271 40.5876 31.2181L27.2947 39.0133H24.2166V28.4338C25.9981 27.2539 27.0777 25.2344 27.0777 23.0566C27.0777 19.5185 24.2679 16.6485 20.8042 16.6485C17.3405 16.6485 14.5313 19.5185 14.5313 23.0566C14.5313 25.2379 15.6103 27.2516 17.3929 28.4344ZM19.3801 29.2982C19.8379 29.4064 20.3143 29.464 20.8042 29.464C21.2947 29.464 21.7716 29.4064 22.2294 29.2982C22.2294 35.8226 22.2294 42.3469 22.2294 48.8719H19.3801V29.2982ZM31.3369 48.8719C29.9878 48.8719 28.9014 47.7622 28.9014 46.3842C28.9014 45.0056 29.9878 43.896 31.3369 43.896C32.6865 43.896 33.7729 45.0056 33.7729 46.3842C33.7729 47.7622 32.6865 48.8719 31.3369 48.8719ZM35.6293 45.2935C35.1411 43.2896 33.3664 41.8667 31.3369 41.8667C29.3237 41.8667 27.5597 43.2666 27.0557 45.2504L24.2166 45.2354V41.0432H27.5575C27.7542 41.0432 27.938 40.985 28.0925 40.8843L41.3436 33.1132H50.8378L54.9381 38.1634C55.1337 38.4058 55.4172 38.5302 55.7025 38.5308L57.8792 38.5319V45.407L55.5841 45.3949C55.132 43.3414 53.3359 41.8667 51.268 41.8667C49.2165 41.8667 47.4305 43.319 46.962 45.3517L35.6293 45.2935Z" fill="#828282"/>
<mask id="path-2-inside-1_661_2873" fill="white">
<path d="M70.5717 35.2859C70.5717 27.2722 67.8439 19.4972 62.8371 13.24C57.8304 6.98293 50.8428 2.61644 43.0242 0.859007C35.2056 -0.898429 27.0216 0.0578734 19.8188 3.57057C12.616 7.08328 6.82339 12.9431 3.39409 20.186C-0.0352224 27.4289 -0.896975 35.6234 0.950612 43.4212C2.7982 51.219 7.24507 58.1557 13.5596 63.0899C19.8741 68.0241 27.6801 70.6619 35.6933 70.5694C43.7064 70.4769 51.4494 67.6595 57.6483 62.5808L56.0473 60.6266C50.2922 65.3417 43.1035 67.9573 35.6641 68.0432C28.2246 68.1291 20.9775 65.6802 15.1151 61.0992C9.25269 56.5183 5.12421 50.0782 3.4089 42.8387C1.69359 35.5992 2.49365 27.9914 5.67743 21.2671C8.86121 14.5428 14.2391 9.10249 20.9262 5.84128C27.6133 2.58008 35.2113 1.69225 42.4702 3.32386C49.729 4.95547 56.2162 9.00933 60.8646 14.8185C65.5129 20.6276 68.0454 27.8459 68.0454 35.2859H70.5717Z"/>
</mask>
<path d="M70.5717 35.2859C70.5717 27.2722 67.8439 19.4972 62.8371 13.24C57.8304 6.98293 50.8428 2.61644 43.0242 0.859007C35.2056 -0.898429 27.0216 0.0578734 19.8188 3.57057C12.616 7.08328 6.82339 12.9431 3.39409 20.186C-0.0352224 27.4289 -0.896975 35.6234 0.950612 43.4212C2.7982 51.219 7.24507 58.1557 13.5596 63.0899C19.8741 68.0241 27.6801 70.6619 35.6933 70.5694C43.7064 70.4769 51.4494 67.6595 57.6483 62.5808L56.0473 60.6266C50.2922 65.3417 43.1035 67.9573 35.6641 68.0432C28.2246 68.1291 20.9775 65.6802 15.1151 61.0992C9.25269 56.5183 5.12421 50.0782 3.4089 42.8387C1.69359 35.5992 2.49365 27.9914 5.67743 21.2671C8.86121 14.5428 14.2391 9.10249 20.9262 5.84128C27.6133 2.58008 35.2113 1.69225 42.4702 3.32386C49.729 4.95547 56.2162 9.00933 60.8646 14.8185C65.5129 20.6276 68.0454 27.8459 68.0454 35.2859H70.5717Z" fill="#E17F0D" stroke="#E17F0D" stroke-width="2" mask="url(#path-2-inside-1_661_2873)"/>
<path d="M60.6668 55.0384H66.1258V40.8579H72.5412V55.0384H78.0002L69.3136 64.3818L60.6668 55.0384Z" fill="#E17F0D"/>
</svg>
