<svg width="85" height="32" viewBox="0 0 85 32" fill="none" xmlns="http://www.w3.org/2000/svg">
<rect width="84.0121" height="32" fill="white"/>
<path d="M16.9148 24.3333L12.1551 19.5832V18.8312L11.8981 18.5646C10.6821 19.6083 9.10899 20.1403 7.5091 20.0488C5.90922 19.9574 4.40697 19.2497 3.31777 18.0742C2.22857 16.8988 1.63713 15.3471 1.66763 13.7449C1.69812 12.1427 2.34817 10.6146 3.48131 9.48146C4.61445 8.34833 6.14253 7.69827 7.74474 7.66778C9.34694 7.63729 10.8987 8.22873 12.0741 9.31793C13.2495 10.4071 13.9572 11.9094 14.0487 13.5093C14.1401 15.1091 13.6081 16.6822 12.5645 17.8983L12.831 18.1553H13.583L18.3332 22.9149L16.9148 24.3324V24.3333ZM7.87143 9.58788C7.02419 9.58788 6.19598 9.83911 5.49153 10.3098C4.78708 10.7805 4.23803 11.4495 3.9138 12.2323C3.58958 13.015 3.50475 13.8763 3.67004 14.7073C3.83532 15.5382 4.24331 16.3015 4.84239 16.9006C5.44148 17.4997 6.20476 17.9077 7.03572 18.073C7.86667 18.2383 8.72798 18.1534 9.51073 17.8292C10.2935 17.505 10.9625 16.9559 11.4332 16.2515C11.9039 15.547 12.1551 14.7188 12.1551 13.8716C12.1539 12.7359 11.7021 11.647 10.8991 10.8439C10.096 10.0409 9.00715 9.58914 7.87143 9.58788Z" fill="#252525"/>
<path d="M52 2.29225C52 1.027 53.0597 0 54.3659 0H81.6462C82.953 0 84.0121 1.027 84.0121 2.29225V29.7081C84.0121 30.9737 82.953 32 81.6462 32H54.3659C53.0598 32 52 30.9739 52 29.7085V2.29187V2.29225Z" fill="#006699"/>
<path d="M63.4674 23.3111V12.5927H59.9034V23.3111H63.4678H63.4674ZM61.6862 11.1296C62.9287 11.1296 63.7023 10.3066 63.7023 9.27798C63.679 8.22597 62.9287 7.4259 61.7098 7.4259C60.49 7.4259 59.6934 8.22597 59.6934 9.27789C59.6934 10.3065 60.4667 11.1295 61.6628 11.1295H61.6859L61.6862 11.1296ZM65.4401 23.3111H69.0038V17.3261C69.0038 17.0062 69.027 16.6855 69.1212 16.457C69.3787 15.8167 69.9651 15.1538 70.9499 15.1538C72.2391 15.1538 72.7552 16.1367 72.7552 17.5777V23.3111H76.3188V17.1655C76.3188 13.8734 74.5608 12.3415 72.2161 12.3415C70.2937 12.3415 69.4494 13.4155 68.9803 14.147H69.004V12.5931H65.4403C65.4868 13.5986 65.44 23.3115 65.44 23.3115L65.4401 23.3111Z" fill="white"/>
</svg>
