<svg width="21" height="21" viewBox="0 0 21 21" fill="none" xmlns="http://www.w3.org/2000/svg">
<path d="M20.125 2.62501C19.2871 3.21605 18.3593 3.66811 17.3775 3.96376C16.8505 3.35783 16.1502 2.92837 15.3712 2.73345C14.5921 2.53853 13.7721 2.58756 13.0218 2.87391C12.2716 3.16026 11.6274 3.67011 11.1764 4.33451C10.7253 4.99891 10.4892 5.7858 10.5 6.58876V7.46376C8.96231 7.50363 7.43862 7.1626 6.06463 6.47102C4.69065 5.77945 3.50903 4.75882 2.625 3.50001C2.625 3.50001 -0.875 11.375 7 14.875C5.19796 16.0982 3.05126 16.7116 0.875 16.625C8.75 21 18.375 16.625 18.375 6.56251C18.3742 6.31878 18.3508 6.07565 18.305 5.83626C19.198 4.95557 19.8282 3.84363 20.125 2.62501Z" fill="#ABBED1"/>
</svg>
