<svg width="774" height="49" viewBox="0 0 774 49" fill="none" xmlns="http://www.w3.org/2000/svg">
<g opacity="0.8">
<path d="M280.922 42.1846V48.907H280.045V42.1846H280.922ZM283.083 42.1846V42.9141H277.889V42.1846H283.083Z" fill="white"/>
<path d="M297.58 45.3334V45.7582C297.58 46.263 297.517 46.7154 297.39 47.1156C297.264 47.5157 297.083 47.8558 296.846 48.1359C296.609 48.416 296.324 48.63 295.992 48.7777C295.662 48.9254 295.293 48.9993 294.883 48.9993C294.486 48.9993 294.122 48.9254 293.789 48.7777C293.46 48.63 293.174 48.416 292.93 48.1359C292.69 47.8558 292.504 47.5157 292.372 47.1156C292.239 46.7154 292.173 46.263 292.173 45.7582V45.3334C292.173 44.8286 292.238 44.3777 292.367 43.9806C292.5 43.5805 292.686 43.2404 292.926 42.9603C293.166 42.6771 293.451 42.4616 293.78 42.3139C294.112 42.1662 294.477 42.0923 294.874 42.0923C295.284 42.0923 295.653 42.1662 295.982 42.3139C296.315 42.4616 296.599 42.6771 296.836 42.9603C297.077 43.2404 297.26 43.5805 297.386 43.9806C297.515 44.3777 297.58 44.8286 297.58 45.3334ZM296.698 45.7582V45.3242C296.698 44.924 296.656 44.5701 296.573 44.2623C296.493 43.9545 296.375 43.6959 296.218 43.4866C296.061 43.2773 295.868 43.1188 295.641 43.0111C295.416 42.9033 295.16 42.8495 294.874 42.8495C294.597 42.8495 294.346 42.9033 294.122 43.0111C293.9 43.1188 293.709 43.2773 293.549 43.4866C293.392 43.6959 293.271 43.9545 293.184 44.2623C293.098 44.5701 293.055 44.924 293.055 45.3242V45.7582C293.055 46.1614 293.098 46.5184 293.184 46.8293C293.271 47.1371 293.394 47.3972 293.554 47.6096C293.717 47.8189 293.909 47.9774 294.131 48.0851C294.356 48.1929 294.606 48.2467 294.883 48.2467C295.173 48.2467 295.43 48.1929 295.654 48.0851C295.879 47.9774 296.068 47.8189 296.222 47.6096C296.379 47.3972 296.498 47.1371 296.578 46.8293C296.658 46.5184 296.698 46.1614 296.698 45.7582Z" fill="white"/>
<path d="M312.335 45.5597V48.0205C312.252 48.1436 312.12 48.2821 311.938 48.436C311.757 48.5869 311.506 48.7192 311.186 48.8331C310.869 48.9439 310.459 48.9993 309.958 48.9993C309.548 48.9993 309.171 48.9285 308.826 48.7869C308.485 48.6423 308.188 48.433 307.935 48.159C307.686 47.882 307.492 47.5465 307.354 47.1525C307.218 46.7555 307.15 46.3061 307.15 45.8044V45.2826C307.15 44.7809 307.209 44.3331 307.326 43.9391C307.446 43.5451 307.621 43.2111 307.852 42.9372C308.083 42.6602 308.366 42.4509 308.702 42.3093C309.037 42.1646 309.422 42.0923 309.856 42.0923C310.37 42.0923 310.799 42.1815 311.144 42.3601C311.492 42.5355 311.763 42.7787 311.957 43.0896C312.154 43.4004 312.28 43.7544 312.335 44.1515H311.444C311.404 43.9083 311.324 43.6867 311.204 43.4866C311.087 43.2865 310.919 43.1265 310.701 43.0065C310.482 42.8833 310.201 42.8218 309.856 42.8218C309.545 42.8218 309.276 42.8787 309.048 42.9926C308.82 43.1065 308.632 43.2696 308.485 43.482C308.337 43.6944 308.226 43.9514 308.152 44.253C308.081 44.5547 308.046 44.8948 308.046 45.2734V45.8044C308.046 46.1922 308.091 46.5385 308.18 46.8432C308.272 47.1479 308.403 47.408 308.572 47.6234C308.742 47.8358 308.943 47.9974 309.177 48.1082C309.414 48.219 309.676 48.2744 309.962 48.2744C310.279 48.2744 310.536 48.2483 310.733 48.196C310.93 48.1406 311.084 48.0759 311.195 48.002C311.306 47.9251 311.39 47.8528 311.449 47.785V46.2799H309.893V45.5597H312.335Z" fill="white"/>
<path d="M326.537 48.1821V48.907H322.977V48.1821H326.537ZM323.157 42.1846V48.907H322.266V42.1846H323.157ZM326.066 45.0749V45.7997H322.977V45.0749H326.066ZM326.491 42.1846V42.9141H322.977V42.1846H326.491Z" fill="white"/>
<path d="M338.67 42.1846V48.907H337.793V42.1846H338.67ZM340.831 42.1846V42.9141H335.636V42.1846H340.831Z" fill="white"/>
<path d="M354.672 45.0749V45.7997H351.034V45.0749H354.672ZM351.172 42.1846V48.907H350.281V42.1846H351.172ZM355.448 42.1846V48.907H354.561V42.1846H355.448Z" fill="white"/>
<path d="M369.755 48.1821V48.907H366.196V48.1821H369.755ZM366.376 42.1846V48.907H365.485V42.1846H366.376ZM369.284 45.0749V45.7997H366.196V45.0749H369.284ZM369.709 42.1846V42.9141H366.196V42.1846H369.709Z" fill="white"/>
<path d="M379.312 42.1846H381.537C382.042 42.1846 382.469 42.2616 382.816 42.4155C383.167 42.5694 383.434 42.7971 383.615 43.0988C383.8 43.3974 383.892 43.7652 383.892 44.2023C383.892 44.5101 383.829 44.7917 383.703 45.0472C383.58 45.2996 383.401 45.515 383.167 45.6935C382.936 45.869 382.659 45.9998 382.336 46.086L382.087 46.1829H379.995L379.986 45.4581H381.565C381.885 45.4581 382.152 45.4027 382.364 45.2919C382.576 45.178 382.736 45.0256 382.844 44.8348C382.952 44.6439 383.006 44.4331 383.006 44.2023C383.006 43.9437 382.955 43.7175 382.853 43.5236C382.752 43.3296 382.592 43.1804 382.373 43.0757C382.158 42.968 381.879 42.9141 381.537 42.9141H380.203V48.907H379.312V42.1846ZM383.241 48.907L381.607 45.8598L382.535 45.8551L384.192 48.8516V48.907H383.241Z" fill="white"/>
<path d="M406.159 46.8755L407.493 42.1846H408.14L407.766 44.0083L406.33 48.907H405.688L406.159 46.8755ZM404.779 42.1846L405.841 46.7832L406.159 48.907H405.522L403.892 42.1846H404.779ZM409.867 46.7785L410.905 42.1846H411.796L410.171 48.907H409.534L409.867 46.7785ZM408.237 42.1846L409.534 46.8755L410.005 48.907H409.363L407.978 44.0083L407.6 42.1846H408.237Z" fill="white"/>
<path d="M425.509 48.1821V48.907H421.949V48.1821H425.509ZM422.129 42.1846V48.907H421.238V42.1846H422.129ZM425.038 45.0749V45.7997H421.949V45.0749H425.038ZM425.462 42.1846V42.9141H421.949V42.1846H425.462Z" fill="white"/>
<path d="M450.832 45.5597V48.0205C450.749 48.1436 450.617 48.2821 450.435 48.436C450.253 48.5869 450.002 48.7192 449.682 48.8331C449.365 48.9439 448.956 48.9993 448.454 48.9993C448.045 48.9993 447.668 48.9285 447.323 48.7869C446.981 48.6423 446.684 48.433 446.432 48.159C446.183 47.882 445.989 47.5465 445.85 47.1525C445.715 46.7555 445.647 46.3061 445.647 45.8044V45.2826C445.647 44.7809 445.706 44.3331 445.823 43.9391C445.943 43.5451 446.118 43.2111 446.349 42.9372C446.58 42.6602 446.863 42.4509 447.198 42.3093C447.534 42.1646 447.919 42.0923 448.353 42.0923C448.867 42.0923 449.296 42.1815 449.641 42.3601C449.989 42.5355 450.259 42.7787 450.453 43.0896C450.65 43.4004 450.777 43.7544 450.832 44.1515H449.941C449.901 43.9083 449.821 43.6867 449.701 43.4866C449.584 43.2865 449.416 43.1265 449.198 43.0065C448.979 42.8833 448.697 42.8218 448.353 42.8218C448.042 42.8218 447.772 42.8787 447.545 42.9926C447.317 43.1065 447.129 43.2696 446.981 43.482C446.834 43.6944 446.723 43.9514 446.649 44.253C446.578 44.5547 446.543 44.8948 446.543 45.2734V45.8044C446.543 46.1922 446.587 46.5385 446.677 46.8432C446.769 47.1479 446.9 47.408 447.069 47.6234C447.238 47.8358 447.44 47.9974 447.674 48.1082C447.911 48.219 448.173 48.2744 448.459 48.2744C448.776 48.2744 449.033 48.2483 449.23 48.196C449.427 48.1406 449.581 48.0759 449.692 48.002C449.802 47.9251 449.887 47.8528 449.946 47.785V46.2799H448.39V45.5597H450.832Z" fill="white"/>
<path d="M460.763 42.1846H462.988C463.493 42.1846 463.919 42.2616 464.267 42.4155C464.618 42.5694 464.884 42.7971 465.066 43.0988C465.25 43.3974 465.343 43.7652 465.343 44.2023C465.343 44.5101 465.28 44.7917 465.154 45.0472C465.03 45.2996 464.852 45.515 464.618 45.6935C464.387 45.869 464.11 45.9998 463.787 46.086L463.538 46.1829H461.446L461.437 45.4581H463.016C463.336 45.4581 463.602 45.4027 463.815 45.2919C464.027 45.178 464.187 45.0256 464.295 44.8348C464.402 44.6439 464.456 44.4331 464.456 44.2023C464.456 43.9437 464.406 43.7175 464.304 43.5236C464.202 43.3296 464.042 43.1804 463.824 43.0757C463.608 42.968 463.33 42.9141 462.988 42.9141H461.654V48.907H460.763V42.1846ZM464.692 48.907L463.057 45.8598L463.985 45.8551L465.643 48.8516V48.907H464.692Z" fill="white"/>
<path d="M480.218 45.3334V45.7582C480.218 46.263 480.155 46.7154 480.029 47.1156C479.903 47.5157 479.721 47.8558 479.484 48.1359C479.247 48.416 478.963 48.63 478.63 48.7777C478.301 48.9254 477.931 48.9993 477.522 48.9993C477.125 48.9993 476.76 48.9254 476.428 48.7777C476.098 48.63 475.812 48.416 475.569 48.1359C475.329 47.8558 475.143 47.5157 475.01 47.1156C474.878 46.7154 474.812 46.263 474.812 45.7582V45.3334C474.812 44.8286 474.876 44.3777 475.006 43.9806C475.138 43.5805 475.324 43.2404 475.564 42.9603C475.805 42.6771 476.089 42.4616 476.419 42.3139C476.751 42.1662 477.116 42.0923 477.513 42.0923C477.922 42.0923 478.292 42.1662 478.621 42.3139C478.953 42.4616 479.238 42.6771 479.475 42.9603C479.715 43.2404 479.898 43.5805 480.024 43.9806C480.154 44.3777 480.218 44.8286 480.218 45.3334ZM479.337 45.7582V45.3242C479.337 44.924 479.295 44.5701 479.212 44.2623C479.132 43.9545 479.013 43.6959 478.856 43.4866C478.699 43.2773 478.507 43.1188 478.279 43.0111C478.055 42.9033 477.799 42.8495 477.513 42.8495C477.236 42.8495 476.985 42.9033 476.76 43.0111C476.539 43.1188 476.348 43.2773 476.188 43.4866C476.031 43.6959 475.909 43.9545 475.823 44.2623C475.737 44.5701 475.694 44.924 475.694 45.3242V45.7582C475.694 46.1614 475.737 46.5184 475.823 46.8293C475.909 47.1371 476.032 47.3972 476.192 47.6096C476.355 47.8189 476.548 47.9774 476.769 48.0851C476.994 48.1929 477.245 48.2467 477.522 48.2467C477.811 48.2467 478.068 48.1929 478.293 48.0851C478.518 47.9774 478.707 47.8189 478.861 47.6096C479.018 47.3972 479.136 47.1371 479.216 46.8293C479.296 46.5184 479.337 46.1614 479.337 45.7582Z" fill="white"/>
<path d="M491.774 46.8755L493.109 42.1846H493.755L493.381 44.0083L491.945 48.907H491.303L491.774 46.8755ZM490.394 42.1846L491.456 46.7832L491.774 48.907H491.137L489.507 42.1846H490.394ZM495.482 46.7785L496.521 42.1846H497.412L495.786 48.907H495.149L495.482 46.7785ZM493.852 42.1846L495.149 46.8755L495.62 48.907H494.979L493.593 44.0083L493.215 42.1846H493.852Z" fill="white"/>
</g>
<path d="M433.394 9.11039C439.469 9.11039 444.394 14.0351 444.394 20.11C444.394 26.1849 439.469 31.1096 433.394 31.1096C427.319 31.1096 422.395 26.1849 422.395 20.11C422.395 14.0351 427.319 9.11039 433.394 9.11039ZM433.394 25.6183C436.436 25.6183 438.902 23.1522 438.902 20.11C438.902 17.0678 436.436 14.6017 433.394 14.6017C430.352 14.6017 427.886 17.0678 427.886 20.11C427.886 23.1522 430.352 25.6183 433.394 25.6183Z" fill="#E17D08"/>
<path d="M453.311 1.27808V30.4087H447.459V1.27808H453.311Z" fill="#E17D08"/>
<path d="M463.348 1.27808V30.4087H457.496V1.27808H463.348Z" fill="#E17D08"/>
<path d="M466.429 23.1884C466.429 18.5809 469.785 16.2772 476.498 16.2772C478.073 16.2772 479.648 16.4244 481.223 16.7188V14.9745C481.223 12.8989 479.729 11.8611 476.741 11.8611C474.209 11.8611 471.397 12.2292 468.306 12.9652V8.32828C471.397 7.59227 474.209 7.22426 476.741 7.22426C483.63 7.22426 487.074 9.77087 487.074 14.8641V30.4087H483.674L481.598 28.3331C479.582 29.7168 477.359 30.4087 474.93 30.4087C469.263 30.4087 466.429 28.0019 466.429 23.1884ZM481.223 20.6933C479.751 20.3989 478.176 20.2517 476.498 20.2517C473.686 20.2517 472.28 21.2085 472.28 23.1221C472.28 25.183 473.458 26.2134 475.813 26.2134C477.756 26.2134 479.56 25.6099 481.223 24.4028V20.6933Z" fill="#E17D08"/>
<path d="M491.26 30.4087V7.22426H495.786L496.515 10.183C498.546 8.21052 500.696 7.22426 502.962 7.22426V11.9495C500.784 11.9495 498.833 12.8548 497.111 14.6654V30.4087H491.26Z" fill="#E17D08"/>
<path d="M421.481 29.2668C419.202 30.4788 416.648 31.0811 414.068 31.0152C411.487 30.9492 408.968 30.2173 406.754 28.8904C404.54 27.5635 402.707 25.6868 401.432 23.4424C400.157 21.1979 399.484 18.662 399.479 16.0809C399.473 13.4997 400.135 10.9609 401.4 8.71094C402.665 6.46099 404.49 4.57631 406.698 3.23983C408.907 1.90336 411.423 1.16049 414.003 1.08335C416.583 1.00621 419.139 1.5974 421.423 2.79955L418.728 7.92105C417.327 7.18361 415.759 6.82094 414.176 6.86827C412.593 6.91559 411.05 7.37129 409.695 8.19113C408.34 9.01098 407.221 10.1671 406.445 11.5473C405.669 12.9275 405.263 14.4849 405.266 16.0683C405.27 17.6517 405.682 19.2073 406.464 20.5841C407.246 21.9609 408.371 23.1122 409.729 23.9262C411.087 24.7401 412.633 25.1891 414.216 25.2296C415.799 25.27 417.365 24.9005 418.763 24.157L421.481 29.2668Z" fill="#E17D08"/>
<path d="M298.964 30.4083V7.22388H303.491L304.219 10.1826C306.251 8.21013 308.4 7.22388 310.667 7.22388V11.9491C308.488 11.9491 306.538 12.8544 304.816 14.665V30.4083H298.964Z" fill="#2B455E"/>
<path d="M322.856 7.22388C329.892 7.22388 333.411 10.8156 333.411 17.9991C333.411 18.9559 333.344 19.9127 333.212 20.8696H317.822C317.822 24.1375 320.221 25.7714 325.02 25.7714C327.361 25.7714 329.701 25.5506 332.042 25.109V29.7459C329.996 30.1875 327.508 30.4083 324.578 30.4083C316.173 30.4083 311.971 26.4559 311.971 18.5511C311.971 10.9996 315.599 7.22388 322.856 7.22388ZM317.822 16.8068H327.714V16.6301C327.714 13.4211 326.095 11.8166 322.856 11.8166C319.765 11.8166 318.087 13.48 317.822 16.8068Z" fill="#2B455E"/>
<path d="M335.796 23.188C335.796 18.5806 339.152 16.2768 345.865 16.2768C347.44 16.2768 349.015 16.424 350.59 16.7184V14.9741C350.59 12.8985 349.096 11.8608 346.108 11.8608C343.576 11.8608 340.764 12.2288 337.673 12.9648V8.3279C340.764 7.59188 343.576 7.22388 346.108 7.22388C352.997 7.22388 356.441 9.77048 356.441 14.8637V30.4083H353.041L350.965 28.3327C348.949 29.7164 346.726 30.4083 344.297 30.4083C338.63 30.4083 335.796 28.0015 335.796 23.188ZM350.59 20.6929C349.118 20.3985 347.543 20.2513 345.865 20.2513C343.053 20.2513 341.648 21.2081 341.648 23.1218C341.648 25.1826 342.825 26.213 345.18 26.213C347.123 26.213 348.927 25.6095 350.59 24.4024V20.6929Z" fill="#2B455E"/>
<path d="M361.079 30.4083V7.22388H365.606L366.29 10.5801C368.366 8.34262 370.861 7.22388 373.775 7.22388C376.69 7.22388 378.685 8.28374 379.759 10.4035C382.129 8.28374 384.609 7.22388 387.2 7.22388C392.529 7.22388 395.193 10.1606 395.193 16.034V30.4083H389.342V15.8131C389.342 13.2371 388.179 11.9491 385.853 11.9491C384.116 11.9491 382.446 12.7293 380.841 14.2896V30.4083H374.99V15.8794C374.99 13.2592 373.915 11.9491 371.766 11.9491C370.058 11.9491 368.447 12.7293 366.93 14.2896V30.4083H361.079Z" fill="#2B455E"/>
<path d="M294.985 29.2668C292.706 30.4788 290.153 31.0811 287.572 31.0152C284.992 30.9492 282.472 30.2173 280.258 28.8904C278.044 27.5635 276.211 25.6868 274.936 23.4424C273.661 21.1979 272.989 18.662 272.983 16.0809C272.977 13.4997 273.639 10.9609 274.904 8.71094C276.169 6.46099 277.994 4.57631 280.203 3.23983C282.411 1.90336 284.927 1.16049 287.507 1.08335C290.087 1.00621 292.643 1.5974 294.928 2.79955L292.232 7.92105C290.831 7.18361 289.263 6.82094 287.68 6.86827C286.098 6.91559 284.554 7.37129 283.199 8.19113C281.845 9.01098 280.725 10.1671 279.949 11.5473C279.173 12.9275 278.767 14.4849 278.771 16.0683C278.774 17.6517 279.187 19.2073 279.969 20.5841C280.751 21.9609 281.875 23.1122 283.233 23.9262C284.592 24.7401 286.137 25.1891 287.72 25.2296C289.303 25.27 290.869 24.9005 292.267 24.157L294.985 29.2668Z" fill="#2B455E"/>
</svg>
