<svg width="21" height="21" viewBox="0 0 21 21" fill="none" xmlns="http://www.w3.org/2000/svg">
<path d="M11.4305 0.313427V1.73817C12.8396 1.73817 14.1598 2.09435 15.391 2.80672C16.5629 3.50425 17.4974 4.43924 18.1945 5.61168C18.9066 6.84349 19.2626 8.16434 19.2626 9.57424H20.6866C20.6866 7.8972 20.2638 6.33889 19.4183 4.89931C18.6025 3.50425 17.4974 2.39859 16.103 1.58234C14.6642 0.736397 13.1066 0.313427 11.4305 0.313427ZM4.06562 2.45054C3.66511 2.45054 3.31653 2.57669 3.01986 2.82899L0.728078 5.16645L0.794829 5.12193C0.423991 5.43359 0.179238 5.81946 0.0605702 6.27953C-0.0432644 6.7396 -0.0135974 7.18483 0.149571 7.61522C0.56491 8.77283 1.12117 9.96011 1.81834 11.1771C2.79735 12.8541 3.96178 14.3605 5.31164 15.6962C7.47733 17.8778 10.1696 19.5994 13.3885 20.8609H13.4107C13.8409 21.0093 14.2711 21.039 14.7012 20.9499C15.1463 20.8609 15.5393 20.6679 15.8805 20.3711L18.1278 18.1227C18.4245 17.8259 18.5728 17.4623 18.5728 17.0319C18.5728 16.5866 18.4245 16.2156 18.1278 15.9188L15.213 12.9803C14.9163 12.6834 14.5455 12.535 14.1005 12.535C13.6555 12.535 13.2846 12.6834 12.988 12.9803L11.5862 14.405C10.4589 13.8707 9.47985 13.2103 8.64918 12.4237C7.8185 11.6223 7.15841 10.6502 6.6689 9.50746L8.09292 8.08272C8.40442 7.75621 8.56018 7.37035 8.56018 6.92512C8.56018 6.46504 8.38217 6.09402 8.02617 5.81204L8.09292 5.87882L5.11138 2.82899C4.81471 2.57669 4.46612 2.45054 4.06562 2.45054ZM11.4305 3.16291V4.58765C12.3353 4.58765 13.166 4.81027 13.9225 5.2555C14.6938 5.70073 15.302 6.30921 15.747 7.08095C16.192 7.83784 16.4145 8.66894 16.4145 9.57424H17.8385C17.8385 8.41664 17.5493 7.34067 16.9708 6.34631C16.3923 5.38165 15.6209 4.60991 14.6567 4.03111C13.6629 3.45231 12.5875 3.16291 11.4305 3.16291ZM4.06562 3.87528C4.11012 3.87528 4.16204 3.89754 4.22137 3.94206L7.13616 6.92512C7.15099 6.98448 7.13616 7.03642 7.09166 7.08095L4.97788 9.17354L5.13363 9.61877L5.42289 10.2421C5.66022 10.7467 5.93464 11.2364 6.24615 11.7114C6.67632 12.3792 7.15099 12.9506 7.67016 13.4255C8.36734 14.1082 9.20543 14.7315 10.1844 15.2955C10.674 15.5774 11.0893 15.7852 11.4305 15.9188L11.8755 16.1191L14.0337 13.9598C14.0634 13.9301 14.0857 13.9153 14.1005 13.9153C14.1153 13.9153 14.1376 13.9301 14.1672 13.9598L17.171 16.9651C17.2007 16.9948 17.2155 17.017 17.2155 17.0319C17.2155 17.0319 17.2007 17.0467 17.171 17.0764L14.946 19.2803C14.6197 19.5623 14.2637 19.6365 13.878 19.5029C10.852 18.3305 8.33026 16.7276 6.3129 14.6944C5.06688 13.4478 3.97662 12.0304 3.04211 10.4424C2.3746 9.29968 1.85543 8.19403 1.48459 7.12547V7.10321C1.42525 6.96964 1.41784 6.81381 1.46234 6.63572C1.50684 6.44278 1.58842 6.29437 1.70709 6.19048L3.90987 3.94206C3.95437 3.89754 4.00629 3.87528 4.06562 3.87528ZM11.4305 6.01239V7.43713C12.0238 7.43713 12.5281 7.64491 12.9435 8.06046C13.3588 8.47601 13.5665 8.9806 13.5665 9.57424H14.9905C14.9905 8.93608 14.8273 8.34244 14.501 7.79332C14.1895 7.2442 13.7593 6.81381 13.2105 6.50215C12.6616 6.17564 12.0683 6.01239 11.4305 6.01239Z" fill="#717171"/>
</svg>
