<svg width="90" height="73" viewBox="0 0 90 73" fill="none" xmlns="http://www.w3.org/2000/svg">
<path d="M22.828 67.8047H11C10.7348 67.8047 10.4804 67.6994 10.2929 67.5118C10.1054 67.3243 10 67.0699 10 66.8047V43.9287C10 43.6635 10.1054 43.4091 10.2929 43.2216C10.4804 43.0341 10.7348 42.9287 11 42.9287H22.828C23.0932 42.9287 23.3476 43.0341 23.5351 43.2216C23.7226 43.4091 23.828 43.6635 23.828 43.9287V66.8047C23.828 67.0699 23.7226 67.3243 23.5351 67.5118C23.3476 67.6994 23.0932 67.8047 22.828 67.8047ZM12 65.8047H21.828V44.9287H12V65.8047Z" fill="#828282"/>
<path d="M53.6869 59.9645H40.6869C40.4217 59.9645 40.1673 59.8591 39.9798 59.6716C39.7923 59.484 39.6869 59.2297 39.6869 58.9645C39.6869 58.6993 39.7923 58.4449 39.9798 58.2574C40.1673 58.0698 40.4217 57.9645 40.6869 57.9645H53.6869C54.3325 57.9645 54.9515 57.708 55.408 57.2516C55.8645 56.7951 56.1209 56.176 56.1209 55.5305C56.1209 54.8849 55.8645 54.2658 55.408 53.8094C54.9515 53.3529 54.3325 53.0965 53.6869 53.0965H44.7359C44.5737 53.0964 44.4139 53.0569 44.2703 52.9813C44.1267 52.9056 44.0037 52.7962 43.9119 52.6625C39.6819 46.5075 23.0649 47.5895 22.8999 47.6005C22.6359 47.616 22.3763 47.5274 22.1768 47.3537C21.9774 47.18 21.8539 46.9351 21.8329 46.6715C21.8148 46.4071 21.9023 46.1463 22.0763 45.9465C22.2503 45.7466 22.4966 45.6239 22.7609 45.6055C23.4759 45.5545 39.9809 44.4895 45.2419 51.0975H53.6899C54.8659 51.0975 55.9937 51.5646 56.8252 52.3962C57.6568 53.2277 58.1239 54.3555 58.1239 55.5315C58.1239 56.7074 57.6568 57.8353 56.8252 58.6668C55.9937 59.4983 54.8659 59.9655 53.6899 59.9655L53.6869 59.9645Z" fill="#828282"/>
<path d="M45.392 72.1995C42.8737 72.1996 40.3788 71.7172 38.042 70.7785L22.455 64.5185C22.3321 64.4703 22.22 64.3983 22.1252 64.3065C22.0303 64.2148 21.9545 64.1052 21.9022 63.984C21.8499 63.8629 21.8221 63.7325 21.8204 63.6006C21.8187 63.4686 21.8431 63.3376 21.8923 63.2151C21.9414 63.0927 22.0144 62.9811 22.1068 62.887C22.1993 62.7928 22.3095 62.7179 22.4311 62.6665C22.5526 62.6152 22.6832 62.5884 22.8151 62.5877C22.9471 62.587 23.0779 62.6124 23.2 62.6625L38.787 68.9185C41.147 69.8663 43.6835 70.2943 46.2238 70.1735C48.7641 70.0527 51.2486 69.3859 53.508 68.2185L77.779 56.4995C73.3656 54.6758 68.4223 54.6071 63.96 56.3075L56.46 58.8625C56.3353 58.9066 56.203 58.9256 56.071 58.9182C55.9389 58.9108 55.8096 58.8773 55.6905 58.8196C55.5715 58.7619 55.4651 58.6812 55.3774 58.5821C55.2898 58.483 55.2227 58.3675 55.1801 58.2423C55.1374 58.117 55.12 57.9846 55.1289 57.8526C55.1378 57.7206 55.1727 57.5917 55.2318 57.4733C55.2908 57.355 55.3728 57.2495 55.4729 57.163C55.573 57.0765 55.6893 57.0108 55.815 56.9695L63.284 54.4255C68.3354 52.5088 73.9361 52.643 78.89 54.7995C79.2115 54.9394 79.4866 55.168 79.683 55.4584C79.8794 55.7489 79.9889 56.0894 79.9989 56.4399C80.0089 56.7904 79.9188 57.1365 79.7393 57.4376C79.5597 57.7388 79.2981 57.9826 78.985 58.1405L54.4 70.0115C51.6147 71.4486 48.5261 72.1988 45.392 72.1995Z" fill="#828282"/>
<path d="M50.5 41.8047C46.6433 41.8047 42.8731 40.661 39.6664 38.5184C36.4596 36.3757 33.9603 33.3302 32.4844 29.767C31.0084 26.2039 30.6223 22.2831 31.3747 18.5004C32.1271 14.7178 33.9843 11.2432 36.7114 8.51611C39.4386 5.78899 42.9131 3.9318 46.6957 3.17938C50.4784 2.42697 54.3992 2.81314 57.9623 4.28905C61.5255 5.76495 64.571 8.26432 66.7137 11.4711C68.8564 14.6778 70 18.448 70 22.3047C69.9942 27.4746 67.9379 32.4311 64.2822 36.0868C60.6265 39.7425 55.6699 41.7989 50.5 41.8047ZM50.5 4.8047C47.0388 4.8047 43.6554 5.83105 40.7775 7.75398C37.8997 9.6769 35.6567 12.41 34.3321 15.6077C33.0076 18.8054 32.661 22.3241 33.3363 25.7188C34.0115 29.1134 35.6782 32.2316 38.1256 34.6791C40.5731 37.1265 43.6913 38.7932 47.0859 39.4684C50.4806 40.1437 53.9993 39.7971 57.197 38.4726C60.3947 37.1481 63.1278 34.905 65.0507 32.0272C66.9737 29.1493 68 25.7659 68 22.3047C67.9944 17.6651 66.1489 13.2171 62.8682 9.93647C59.5876 6.65578 55.1396 4.81025 50.5 4.8047Z" fill="#E17F0D"/>
<path d="M50.5 36.8047C47.6322 36.8047 44.8288 35.9543 42.4442 34.361C40.0597 32.7677 38.2012 30.5031 37.1038 27.8536C36.0063 25.2041 35.7191 22.2886 36.2786 19.4759C36.8381 16.6632 38.2191 14.0795 40.247 12.0516C42.2748 10.0238 44.8585 8.64279 47.6712 8.08331C50.4839 7.52382 53.3994 7.81097 56.0489 8.90844C58.6984 10.0059 60.963 11.8644 62.5563 14.2489C64.1496 16.6334 65 19.4369 65 22.3047C64.9955 26.149 63.4664 29.8345 60.7481 32.5528C58.0298 35.2711 54.3443 36.8002 50.5 36.8047ZM50.5 9.80469C48.0277 9.80469 45.611 10.5378 43.5554 11.9113C41.4998 13.2848 39.8976 15.2371 38.9515 17.5212C38.0054 19.8052 37.7579 22.3186 38.2402 24.7433C38.7225 27.1681 39.913 29.3954 41.6612 31.1435C43.4093 32.8917 45.6366 34.0822 48.0614 34.5645C50.4861 35.0468 52.9995 34.7993 55.2835 33.8532C57.5676 32.9071 59.5199 31.3049 60.8934 29.2493C62.2669 27.1937 63 24.777 63 22.3047C62.9963 18.9906 61.6782 15.8134 59.3347 13.47C56.9913 11.1266 53.8141 9.8084 50.5 9.80469Z" fill="#E17F0D"/>
<path d="M50.5 23.3046C49.2166 23.3437 47.9699 22.8728 47.0329 21.995C46.0958 21.1171 45.5446 19.9038 45.5 18.6206C45.5842 17.3518 46.1476 16.1625 47.076 15.2936C48.0044 14.4248 49.2284 13.9414 50.5 13.9414C51.7716 13.9414 52.9956 14.4248 53.924 15.2936C54.8524 16.1625 55.4158 17.3518 55.5 18.6206C55.5 18.8858 55.3946 19.1401 55.2071 19.3277C55.0196 19.5152 54.7652 19.6206 54.5 19.6206C54.2348 19.6206 53.9804 19.5152 53.7929 19.3277C53.6054 19.1401 53.5 18.8858 53.5 18.6206C53.4169 17.8831 53.065 17.2021 52.5116 16.7076C51.9583 16.2131 51.2421 15.9397 50.5 15.9397C49.7579 15.9397 49.0417 16.2131 48.4884 16.7076C47.935 17.2021 47.5831 17.8831 47.5 18.6206C47.5452 19.3731 47.8857 20.0773 48.4476 20.58C49.0094 21.0827 49.7471 21.3431 50.5 21.3046C50.7652 21.3046 51.0196 21.4099 51.2071 21.5975C51.3946 21.785 51.5 22.0393 51.5 22.3046C51.5 22.5698 51.3946 22.8241 51.2071 23.0117C51.0196 23.1992 50.7652 23.3046 50.5 23.3046Z" fill="#828282"/>
<path d="M50.5 30.673C49.2166 30.7121 47.9699 30.2412 47.0329 29.3634C46.0958 28.4855 45.5446 27.2722 45.5 25.989C45.5 25.7238 45.6054 25.4694 45.7929 25.2819C45.9804 25.0943 46.2348 24.989 46.5 24.989C46.7652 24.989 47.0196 25.0943 47.2071 25.2819C47.3946 25.4694 47.5 25.7238 47.5 25.989C47.5831 26.7265 47.935 27.4075 48.4884 27.902C49.0417 28.3965 49.7579 28.6698 50.5 28.6698C51.2421 28.6698 51.9583 28.3965 52.5116 27.902C53.065 27.4075 53.4169 26.7265 53.5 25.989C53.4548 25.2364 53.1143 24.5322 52.5524 24.0295C51.9906 23.5269 51.2529 23.2665 50.5 23.305C50.2348 23.305 49.9804 23.1996 49.7929 23.0121C49.6054 22.8246 49.5 22.5702 49.5 22.305C49.5 22.0398 49.6054 21.7854 49.7929 21.5979C49.9804 21.4103 50.2348 21.305 50.5 21.305C51.7834 21.2659 53.0301 21.7368 53.9671 22.6146C54.9042 23.4924 55.4554 24.7057 55.5 25.989C55.4554 27.2722 54.9042 28.4855 53.9671 29.3634C53.0301 30.2412 51.7834 30.7121 50.5 30.673Z" fill="#828282"/>
<path d="M50.5 31.7499C50.2348 31.7499 49.9804 31.6445 49.7929 31.457C49.6054 31.2694 49.5 31.0151 49.5 30.7499V29.6729C49.5 29.4076 49.6054 29.1533 49.7929 28.9657C49.9804 28.7782 50.2348 28.6729 50.5 28.6729C50.7652 28.6729 51.0196 28.7782 51.2071 28.9657C51.3946 29.1533 51.5 29.4076 51.5 29.6729V30.7499C51.5 31.0151 51.3946 31.2694 51.2071 31.457C51.0196 31.6445 50.7652 31.7499 50.5 31.7499Z" fill="#828282"/>
<path d="M50.5 15.9373C50.2348 15.9373 49.9804 15.832 49.7929 15.6444C49.6054 15.4569 49.5 15.2025 49.5 14.9373V13.8613C49.5 13.5961 49.6054 13.3418 49.7929 13.1542C49.9804 12.9667 50.2348 12.8613 50.5 12.8613C50.7652 12.8613 51.0196 12.9667 51.2071 13.1542C51.3946 13.3418 51.5 13.5961 51.5 13.8613V14.9373C51.5 15.2025 51.3946 15.4569 51.2071 15.6444C51.0196 15.832 50.7652 15.9373 50.5 15.9373Z" fill="#828282"/>
</svg>
