<svg width="18" height="18" viewBox="0 0 18 18" fill="none" xmlns="http://www.w3.org/2000/svg">
<path d="M4.08606 17.1986V5.59404H0.22744V17.1986H4.08647H4.08606ZM2.15756 4.00991C3.50286 4.00991 4.3404 3.11882 4.3404 2.00521C4.31522 0.86622 3.50286 0 2.18314 0C0.86252 0 0 0.866221 0 2.00511C0 3.11872 0.837237 4.00981 2.13228 4.00981H2.15726L2.15756 4.00991ZM6.22187 17.1986H10.0802V10.7188C10.0802 10.3724 10.1054 10.0251 10.2073 9.77773C10.4861 9.08449 11.121 8.36689 12.1872 8.36689C13.583 8.36689 14.1418 9.43096 14.1418 10.9911V17.1986H18V10.5449C18 6.98061 16.0967 5.32198 13.5581 5.32198C11.4768 5.32198 10.5627 6.48482 10.0548 7.27684H10.0805V5.59444H6.22207C6.27243 6.68308 6.22177 17.199 6.22177 17.199L6.22187 17.1986Z" fill="#ABBED1"/>
</svg>
