<svg width="140" height="41" viewBox="0 0 140 41" fill="none" xmlns="http://www.w3.org/2000/svg">
<path d="M57.3485 13.3775V9.86612C54.7967 9.86612 52.7246 10.652 52.7246 11.6218C52.7261 12.5902 54.7967 13.3775 57.3485 13.3775Z" fill="#828282"/>
<path d="M139.367 26.063C139.203 26.7356 139.022 27.4699 138.849 28.2838C137.702 33.6538 134.551 33.9334 134.419 33.9437L125.67 35.358L121.741 35.5729L122.139 34.4323C122.557 33.2477 122.769 32.0247 122.769 30.8047C122.769 24.7621 117.854 19.8497 111.813 19.8497C105.773 19.8497 100.856 24.7621 100.856 30.8047C100.856 32.4441 101.224 34.0379 101.945 35.5405L102.471 36.6354L101.154 36.7016L38.1342 36.6001C38.1342 36.6045 36.8245 36.6693 34.7892 36.7605L33.4308 36.8194L34.0269 35.5994C34.7686 34.0821 35.1438 32.4677 35.1438 30.8047C35.1438 24.7621 30.23 19.8497 24.1888 19.8497C18.1477 19.8497 13.2324 24.7621 13.2324 30.8047C13.2324 32.6649 13.7106 34.5089 14.6172 36.1306L15.2912 37.3403L13.9078 37.33C13.3736 37.3271 12.8689 37.3168 12.4038 37.3065C9.1853 37.2211 1.56949 36.8017 0.373035 34.759C0.130208 34.3426 0.118431 33.8584 0.34506 33.4316C0.665878 32.8253 0.551102 31.932 0.358306 30.4603C0.244999 29.6082 0.105185 28.5413 0.0242429 27.2551C-0.223004 23.314 1.48117 21.9954 1.67544 21.857C1.79317 21.7599 5.76959 18.5429 14.7673 15.2066C23.4044 12.0043 42.2137 9.95869 44.3402 9.73353C48.9892 7.11693 59.2157 3.29945 64.1575 1.45547C65.5541 0.934499 66.5667 0.557757 66.9405 0.398819C67.5674 0.133921 68.1619 0 68.7079 0C69.7454 0 70.2737 0.476816 70.3694 0.572474L70.4901 0.693151L70.549 0.846203C71.1347 2.34582 72.2987 3.38187 72.3105 3.3907L73.1361 4.11769L72.1987 4.6887C68.6696 6.82849 62.4239 9.25672 60.499 9.98666L60.5947 11.2523L78.0353 10.3266C78.0853 8.52383 78.4885 4.81673 80.9065 4.66809C83.3053 4.52976 84.1132 7.97638 84.3604 9.69821L100.195 8.67835C100.232 7.73944 100.443 6.72105 101.177 5.95726C102.081 5.01835 103.576 4.61364 106.016 4.67104C109.643 4.75639 110.946 6.42525 111.384 7.33326C113.96 7.68793 119.246 8.27365 119.926 8.3487C121.14 8.26335 122.413 8.22067 123.71 8.22067C131.358 8.22067 137.721 9.67172 137.989 9.73353L138.553 9.86304L138.61 10.437C139.093 15.186 138.513 17.9498 138.127 19.1757C140.679 20.6915 140.12 22.9799 139.367 26.063ZM137.178 13.9086C135.971 14.4458 133.689 15.2125 130.247 15.342C131.01 16.5429 133.088 19.2404 136.394 19.2051L136.403 19.1889C136.411 19.1742 137.171 17.5848 137.178 13.9086ZM43.0584 11.501C43.859 12.1088 45.2821 12.6415 47.469 11.6173C48.2401 11.2538 49.1246 10.8299 50.1047 10.3575C54.2533 8.36342 59.9 5.64674 66.3444 3.20821C66.262 3.01101 66.1796 2.752 66.1193 2.44442C65.7146 2.59747 65.2451 2.7726 64.7212 2.96686C59.7647 4.81673 49.4528 8.66658 44.9922 11.2184L44.8421 11.3023L44.6728 11.32C44.639 11.3244 44.0488 11.3877 43.0584 11.501ZM3.48705 22.5355C5.38107 23.0888 8.58487 22.7018 9.86374 22.4589C12.2552 21.5171 14.1227 19.6451 14.9807 18.6694C13.1485 18.6665 11.0882 18.8755 9.77395 19.0373C6.59077 20.5311 4.53633 21.8188 3.48705 22.5355ZM136.785 20.2941L136.136 19.9983C131.583 19.8703 129.221 15.1845 129.196 15.133L128.915 14.5591L129.555 14.5532C133.581 14.5046 136.105 13.5348 137.168 13.0197C137.152 12.4502 137.118 11.8424 137.063 11.1846C135.336 10.8329 129.886 9.8336 123.713 9.8336C122.428 9.8336 121.168 9.87628 119.97 9.96164L119.898 9.96605L119.826 9.96016C119.555 9.93073 113.193 9.2317 110.687 8.86231L110.126 8.7799L110.013 8.22509C109.998 8.16328 109.513 6.36491 105.981 6.28397C104.087 6.23982 102.896 6.49736 102.341 7.07572C101.925 7.50692 101.766 8.20448 101.813 9.40388L101.844 10.1897L82.9123 11.4083L82.8461 10.6209C82.6916 8.79903 81.9778 6.27661 81.0463 6.27661C80.0617 6.33695 79.604 9.14928 79.6497 11.0727L79.6673 11.8542L59.1083 12.9462L58.8007 8.89763L59.3732 8.68571C59.4468 8.65922 66.3312 6.11473 70.496 3.81159C70.0663 3.3024 69.5394 2.57098 69.1538 1.68063C68.9404 1.6041 68.2738 1.58644 67.5703 1.88372C67.4232 1.94553 67.1936 2.03677 66.8934 2.15156C66.9905 2.80497 67.2421 3.19349 67.2451 3.19938L67.535 3.62469L67.0538 3.8057C60.4681 6.2722 54.6845 9.05215 50.4608 11.0845C49.4778 11.5584 48.5918 11.9852 47.8163 12.3472C46.8053 12.8211 45.9267 13.0036 45.1717 13.0036C43.5926 13.0036 42.561 12.2074 42.0135 11.6246C36.1696 12.3192 22.1992 14.1735 15.3324 16.7224C14.186 17.1477 13.1293 17.5701 12.1448 17.9851C13.3501 17.8909 14.6672 17.8306 15.8431 17.8821L16.5995 17.9145L16.1492 18.5252C16.052 18.6577 13.6871 21.8291 10.0904 23.2316C9.9123 23.2713 7.99621 23.6289 5.9977 23.6289C4.81154 23.6289 3.60331 23.4979 2.7056 23.1079C2.67911 23.1271 2.65998 23.1433 2.65998 23.1433C2.61729 23.1756 1.45323 24.1337 1.64159 27.1579C1.7196 28.3912 1.85057 29.3816 1.96388 30.2543C2.17874 31.8996 2.32591 33.0151 1.85499 34.035C2.45836 34.553 5.55474 35.514 12.4553 35.698C12.5083 35.698 12.5642 35.7009 12.6202 35.7009C11.9682 34.1557 11.6268 32.4868 11.6268 30.8076C11.6268 23.8761 17.2647 18.2368 24.1962 18.2368C31.1247 18.2368 36.7656 23.8761 36.7656 30.8076C36.7656 32.2778 36.5095 33.7142 36.0048 35.0902C37.316 35.0313 38.1033 34.993 38.1033 34.993L100.01 35.0902C99.5053 33.7127 99.2492 32.2778 99.2492 30.8076C99.2492 23.8761 104.889 18.2368 111.819 18.2368C118.75 18.2368 124.389 23.8761 124.389 30.8076C124.389 31.8246 124.261 32.8385 124.011 33.8363L125.543 33.7495L134.241 32.347C134.381 32.3293 136.401 32.0483 137.277 27.9497C137.453 27.1197 137.639 26.3691 137.805 25.6833C138.659 22.1676 138.8 21.2095 136.785 20.2941Z" fill="#828282"/>
<path d="M80.1514 17.6382L86.0763 17.1084C86.4368 17.0775 86.7032 16.7581 86.6723 16.3991C86.6384 16.0385 86.3206 15.7707 85.96 15.8045L80.0366 16.3343C79.6746 16.3667 79.4097 16.6846 79.442 17.0451C79.4744 17.4057 79.7923 17.6706 80.1514 17.6382Z" fill="#828282"/>
<path d="M33.6338 30.8042C33.6338 36.0183 29.4043 40.2493 24.1887 40.2493C18.9747 40.2493 14.7437 36.0183 14.7437 30.8042C14.7437 25.5872 18.9747 21.3606 24.1887 21.3606C29.4043 21.3591 33.6338 25.5872 33.6338 30.8042ZM29.0187 27.1118L26.1343 29.9977H30.2122C30.0695 28.9234 29.6486 27.9359 29.0187 27.1118ZM28.4565 26.4702L28.5242 26.5349C28.5007 26.5114 28.4772 26.4922 28.4565 26.4702ZM27.8782 25.9742C27.0541 25.3443 26.071 24.922 24.9952 24.7807V28.8572L27.8782 25.9742ZM23.3823 24.7807C22.305 24.922 21.319 25.3443 20.4978 25.9742L23.3823 28.8572V24.7807ZM19.8518 26.5379L19.9224 26.4687C19.8989 26.4878 19.8739 26.5158 19.8518 26.5379ZM19.3588 27.1118C18.7289 27.9359 18.3051 28.9219 18.1638 29.9977H22.2403L19.3588 27.1118ZM18.1638 31.6121C18.3051 32.6864 18.7289 33.6739 19.3588 34.4936L22.2403 31.6121H18.1638ZM19.9224 35.1397L19.8518 35.0705C19.8739 35.0941 19.8989 35.1176 19.9224 35.1397ZM20.4978 35.6356C21.319 36.2655 22.305 36.6879 23.3823 36.8292V32.7527L20.4978 35.6356ZM24.9952 36.8292C26.071 36.6879 27.0541 36.2655 27.8782 35.6356L24.9952 32.7527V36.8292ZM28.5228 35.0705L28.4551 35.1397C28.4771 35.1176 28.5007 35.0941 28.5228 35.0705ZM29.0187 34.4936C29.6486 33.6739 30.0695 32.6864 30.2137 31.6121H26.1357L29.0187 34.4936Z" fill="#828282"/>
<path d="M121.258 30.8042C121.258 36.0183 117.029 40.2493 111.813 40.2493C106.599 40.2493 102.369 36.0183 102.369 30.8042C102.369 25.5872 106.599 21.3606 111.813 21.3606C117.029 21.3591 121.258 25.5872 121.258 30.8042ZM116.644 27.1118L113.761 29.9977H117.839C117.697 28.9234 117.273 27.9359 116.644 27.1118ZM116.087 26.4716L116.144 26.5305C116.125 26.5114 116.107 26.4922 116.087 26.4716ZM115.504 25.9713C114.681 25.3443 113.697 24.922 112.621 24.7807V28.8572L115.504 25.9713ZM111.007 24.7807C109.931 24.922 108.945 25.3443 108.124 25.9713L111.007 28.8572V24.7807ZM107.483 26.532L107.542 26.4731C107.522 26.4922 107.501 26.5114 107.483 26.532ZM106.984 27.1118C106.355 27.9359 105.932 28.9219 105.788 29.9977H109.867L106.984 27.1118ZM105.788 31.6121C105.932 32.6864 106.355 33.671 106.984 34.4936L109.866 31.6121H105.788ZM107.55 35.1397L107.476 35.0676C107.5 35.0941 107.525 35.1176 107.55 35.1397ZM108.124 35.6356C108.945 36.2655 109.931 36.6849 111.007 36.8292V32.7527L108.124 35.6356ZM112.621 36.8292C113.697 36.6849 114.681 36.2655 115.504 35.6356L112.621 32.7527V36.8292ZM116.15 35.0705L116.081 35.1397C116.104 35.1176 116.128 35.0941 116.15 35.0705ZM116.644 34.4936C117.273 33.671 117.695 32.6864 117.838 31.6121H113.761L116.644 34.4936Z" fill="#828282"/>
<path d="M86.593 24.6266C86.2648 25.23 85.966 25.8408 85.6187 26.4353L84.5812 28.2263L84.3222 28.6722C84.2589 28.7767 84.1309 28.9077 84.0396 29.0254C83.8424 29.2682 83.6541 29.5184 83.395 29.7009L83.0389 30.007C82.9153 30.1012 82.7711 30.1733 82.6416 30.2587C82.3825 30.4397 82.0956 30.578 81.8057 30.7016C81.5246 30.8473 81.2082 30.918 80.9094 31.0239C80.6166 31.1034 80.2957 31.1755 80.0308 31.2035C77.351 31.2314 74.6681 31.305 71.9897 31.3521L63.9236 31.6023C61.2348 31.7127 58.5476 31.798 55.8604 31.9305C53.3026 32.0541 50.7434 32.1762 48.1857 32.3293C47.9752 31.904 47.756 31.4801 47.5955 31.0239C47.4896 30.7384 47.3571 30.4603 47.2644 30.1674L46.976 29.2889C46.8789 28.9975 46.8126 28.6958 46.7287 28.397C46.6478 28.1027 46.5698 27.801 46.5139 27.4964C46.3755 26.893 46.2755 26.2793 46.171 25.6627C45.9797 24.4294 45.859 23.1829 45.806 21.9276C45.7677 20.6752 45.7574 19.414 45.8369 18.1528C45.5985 19.3949 45.4602 20.6591 45.4013 21.9276C45.338 23.1933 45.3469 24.4706 45.4293 25.7495C45.4719 26.3853 45.5411 27.021 45.6427 27.6583C45.6809 27.9761 45.7413 28.294 45.8031 28.6089C45.8708 28.9239 45.9179 29.2432 46.0003 29.5538L46.2446 30.4956C46.3226 30.8105 46.4432 31.1166 46.5448 31.4242C46.7331 32.0482 47.0275 32.6339 47.2791 33.2373L47.4189 33.5728L47.8413 33.5684C50.533 33.5493 53.2232 33.4904 55.9119 33.4345C58.6021 33.3815 61.2908 33.2829 63.9795 33.2079L72.0456 32.9003C74.7314 32.7649 77.4201 32.6545 80.1074 32.4941L80.15 32.4912H80.1589C80.5739 32.4249 80.9109 32.3234 81.2729 32.213C81.6202 32.0747 81.9778 31.9702 82.3031 31.7833C82.6401 31.6229 82.9653 31.4463 83.2685 31.2182C83.4201 31.1078 83.5819 31.0122 83.7247 30.89L84.1353 30.5C84.4252 30.2572 84.6445 29.9452 84.8593 29.6332C84.9682 29.4728 85.0772 29.3521 85.1861 29.1549L85.4142 28.6899L86.3339 26.8341C86.4914 26.528 86.6121 26.1969 86.7519 25.879L87.1551 24.9166L87.9542 22.9857C88.4664 21.701 88.9726 20.4192 89.4333 19.1138C88.8049 20.3456 88.1662 21.5685 87.5539 22.8033L86.593 24.6266Z" fill="#828282"/>
</svg>
