<svg width="184" height="39" viewBox="0 0 184 39" fill="none" xmlns="http://www.w3.org/2000/svg">
<g style="mix-blend-mode:luminosity">
<g opacity="0.8">
<path d="M6.35164 32.8898V38.2681H5.6498V32.8898H6.35164ZM8.0804 32.8898V33.4734H3.92473V32.8898H8.0804Z" fill="#89939E"/>
<path d="M19.679 35.409V35.7489C19.679 36.1527 19.6285 36.5147 19.5276 36.8349C19.4266 37.155 19.2813 37.4271 19.0917 37.6512C18.9021 37.8753 18.6743 38.0465 18.4083 38.1647C18.1448 38.2829 17.8493 38.342 17.5218 38.342C17.2041 38.342 16.9123 38.2829 16.6463 38.1647C16.3828 38.0465 16.1538 37.8753 15.9592 37.6512C15.7672 37.4271 15.6182 37.155 15.5123 36.8349C15.4064 36.5147 15.3534 36.1527 15.3534 35.7489V35.409C15.3534 35.0051 15.4051 34.6444 15.5086 34.3267C15.6145 34.0066 15.7635 33.7344 15.9555 33.5103C16.1476 33.2838 16.3754 33.1114 16.6389 32.9932C16.9049 32.875 17.1967 32.8159 17.5144 32.8159C17.8419 32.8159 18.1374 32.875 18.4009 32.9932C18.6669 33.1114 18.8947 33.2838 19.0843 33.5103C19.2764 33.7344 19.4229 34.0066 19.5239 34.3267C19.6273 34.6444 19.679 35.0051 19.679 35.409ZM18.9735 35.7489V35.4016C18.9735 35.0815 18.9402 34.7983 18.8737 34.552C18.8097 34.3058 18.7149 34.0989 18.5893 33.9314C18.4637 33.764 18.3098 33.6372 18.1276 33.551C17.9478 33.4648 17.7434 33.4217 17.5144 33.4217C17.2927 33.4217 17.092 33.4648 16.9123 33.551C16.735 33.6372 16.5823 33.764 16.4542 33.9314C16.3286 34.0989 16.2314 34.3058 16.1624 34.552C16.0935 34.7983 16.059 35.0815 16.059 35.4016V35.7489C16.059 36.0715 16.0935 36.3571 16.1624 36.6059C16.2314 36.8521 16.3299 37.0602 16.4579 37.2301C16.5884 37.3976 16.7424 37.5244 16.9197 37.6106C17.0994 37.6968 17.3001 37.7399 17.5218 37.7399C17.7533 37.7399 17.9589 37.6968 18.1387 37.6106C18.3184 37.5244 18.4699 37.3976 18.593 37.2301C18.7186 37.0602 18.8134 36.8521 18.8774 36.6059C18.9415 36.3571 18.9735 36.0715 18.9735 35.7489Z" fill="#89939E"/>
<path d="M31.4845 35.59V37.5589C31.418 37.6574 31.3121 37.7682 31.1668 37.8913C31.0215 38.012 30.8208 38.1179 30.5647 38.209C30.3111 38.2977 29.9835 38.342 29.5821 38.342C29.2546 38.342 28.9529 38.2854 28.6771 38.1721C28.4038 38.0563 28.1661 37.8889 27.9642 37.6697C27.7647 37.4481 27.6096 37.1796 27.4988 36.8644C27.3904 36.5467 27.3362 36.1872 27.3362 35.7858V35.3684C27.3362 34.967 27.383 34.6087 27.4766 34.2935C27.5726 33.9782 27.713 33.711 27.8977 33.4919C28.0824 33.2702 28.309 33.1028 28.5774 32.9895C28.8458 32.8737 29.1536 32.8159 29.5009 32.8159C29.9121 32.8159 30.2557 32.8873 30.5315 33.0301C30.8098 33.1705 31.0265 33.365 31.1816 33.6138C31.3392 33.8625 31.4402 34.1457 31.4845 34.4634H30.7716C30.7396 34.2688 30.6755 34.0915 30.5795 33.9314C30.4859 33.7714 30.3517 33.6433 30.1769 33.5473C30.002 33.4488 29.7767 33.3995 29.5009 33.3995C29.2521 33.3995 29.0367 33.4451 28.8544 33.5362C28.6722 33.6273 28.522 33.7578 28.4038 33.9278C28.2856 34.0977 28.1969 34.3033 28.1378 34.5446C28.0812 34.786 28.0528 35.0581 28.0528 35.361V35.7858C28.0528 36.0961 28.0886 36.3731 28.16 36.6169C28.2338 36.8607 28.3385 37.0688 28.474 37.2412C28.6094 37.4111 28.7707 37.5404 28.9579 37.6291C29.1475 37.7177 29.3568 37.7621 29.5858 37.7621C29.8395 37.7621 30.0451 37.7411 30.2027 37.6993C30.3603 37.6549 30.4835 37.6032 30.5721 37.5441C30.6608 37.4825 30.7285 37.4247 30.7753 37.3705V36.1663H29.5304V35.59H31.4845Z" fill="#89939E"/>
<path d="M42.8467 37.6882V38.2681H39.9987V37.6882H42.8467ZM40.1428 32.8898V38.2681H39.4298V32.8898H40.1428ZM42.4699 35.2022V35.7821H39.9987V35.2022H42.4699ZM42.8098 32.8898V33.4734H39.9987V32.8898H42.8098Z" fill="#89939E"/>
<path d="M52.554 32.8898V38.2681H51.8522V32.8898H52.554ZM54.2828 32.8898V33.4734H50.1271V32.8898H54.2828Z" fill="#89939E"/>
<path d="M65.3569 35.2022V35.7821H62.4461V35.2022H65.3569ZM62.5569 32.8898V38.2681H61.844V32.8898H62.5569ZM65.9775 32.8898V38.2681H65.2682V32.8898H65.9775Z" fill="#89939E"/>
<path d="M77.4246 37.6882V38.2681H74.5766V37.6882H77.4246ZM74.7207 32.8898V38.2681H74.0078V32.8898H74.7207ZM77.0479 35.2022V35.7821H74.5766V35.2022H77.0479ZM77.3877 32.8898V33.4734H74.5766V32.8898H77.3877Z" fill="#89939E"/>
<path d="M85.0708 32.8898H86.8512C87.2551 32.8898 87.5962 32.9513 87.8744 33.0745C88.1552 33.1976 88.3682 33.3798 88.5135 33.6212C88.6613 33.86 88.7351 34.1543 88.7351 34.504C88.7351 34.7503 88.6847 34.9756 88.5837 35.18C88.4852 35.3819 88.3423 35.5543 88.1552 35.6971C87.9705 35.8375 87.7489 35.9422 87.4903 36.0111L87.2908 36.0887H85.6175L85.6101 35.5088H86.8734C87.1295 35.5088 87.3425 35.4644 87.5124 35.3758C87.6824 35.2847 87.8104 35.1628 87.8966 35.0101C87.9828 34.8574 88.0259 34.6887 88.0259 34.504C88.0259 34.2971 87.9853 34.1161 87.904 33.961C87.8227 33.8059 87.6947 33.6864 87.5198 33.6027C87.3474 33.5165 87.1246 33.4734 86.8512 33.4734H85.7837V38.2681H85.0708V32.8898ZM88.2143 38.2681L86.9066 35.8301L87.6491 35.8264L88.9752 38.2238V38.2681H88.2143Z" fill="#89939E"/>
<path d="M106.55 36.6428L107.618 32.8898H108.135L107.836 34.3489L106.687 38.2681H106.174L106.55 36.6428ZM105.446 32.8898L106.295 36.5689L106.55 38.2681H106.041L104.737 32.8898H105.446ZM109.517 36.5652L110.348 32.8898H111.061L109.76 38.2681H109.251L109.517 36.5652ZM108.213 32.8898L109.251 36.6428L109.627 38.2681H109.114L108.006 34.3489L107.703 32.8898H108.213Z" fill="#89939E"/>
<path d="M122.031 37.6882V38.2681H119.183V37.6882H122.031ZM119.327 32.8898V38.2681H118.614V32.8898H119.327ZM121.654 35.2022V35.7821H119.183V35.2022H121.654ZM121.994 32.8898V33.4734H119.183V32.8898H121.994Z" fill="#89939E"/>
<path d="M142.292 35.59V37.5589C142.225 37.6574 142.119 37.7682 141.974 37.8913C141.829 38.012 141.628 38.1179 141.372 38.209C141.118 38.2977 140.791 38.342 140.389 38.342C140.062 38.342 139.76 38.2854 139.484 38.1721C139.211 38.0563 138.973 37.8889 138.772 37.6697C138.572 37.4481 138.417 37.1796 138.306 36.8644C138.198 36.5467 138.144 36.1872 138.144 35.7858V35.3684C138.144 34.967 138.19 34.6087 138.284 34.2935C138.38 33.9782 138.52 33.711 138.705 33.4919C138.89 33.2702 139.116 33.1028 139.385 32.9895C139.653 32.8737 139.961 32.8159 140.308 32.8159C140.719 32.8159 141.063 32.8873 141.339 33.0301C141.617 33.1705 141.834 33.365 141.989 33.6138C142.147 33.8625 142.248 34.1457 142.292 34.4634H141.579C141.547 34.2688 141.483 34.0915 141.387 33.9314C141.293 33.7714 141.159 33.6433 140.984 33.5473C140.809 33.4488 140.584 33.3995 140.308 33.3995C140.059 33.3995 139.844 33.4451 139.662 33.5362C139.48 33.6273 139.329 33.7578 139.211 33.9278C139.093 34.0977 139.004 34.3033 138.945 34.5446C138.888 34.786 138.86 35.0581 138.86 35.361V35.7858C138.86 36.0961 138.896 36.3731 138.967 36.6169C139.041 36.8607 139.146 37.0688 139.281 37.2412C139.417 37.4111 139.578 37.5404 139.765 37.6291C139.955 37.7177 140.164 37.7621 140.393 37.7621C140.647 37.7621 140.852 37.7411 141.01 37.6993C141.168 37.6549 141.291 37.6032 141.379 37.5441C141.468 37.4825 141.536 37.4247 141.583 37.3705V36.1663H140.338V35.59H142.292Z" fill="#89939E"/>
<path d="M150.237 32.8898H152.018C152.422 32.8898 152.763 32.9513 153.041 33.0745C153.322 33.1976 153.535 33.3798 153.68 33.6212C153.828 33.86 153.902 34.1543 153.902 34.504C153.902 34.7503 153.851 34.9756 153.75 35.18C153.652 35.3819 153.509 35.5543 153.322 35.6971C153.137 35.8375 152.915 35.9422 152.657 36.0111L152.457 36.0887H150.784L150.776 35.5088H152.04C152.296 35.5088 152.509 35.4644 152.679 35.3758C152.849 35.2847 152.977 35.1628 153.063 35.0101C153.149 34.8574 153.192 34.6887 153.192 34.504C153.192 34.2971 153.152 34.1161 153.07 33.961C152.989 33.8059 152.861 33.6864 152.686 33.6027C152.514 33.5165 152.291 33.4734 152.018 33.4734H150.95V38.2681H150.237V32.8898ZM153.381 38.2681L152.073 35.8301L152.816 35.8264L154.142 38.2238V38.2681H153.381Z" fill="#89939E"/>
<path d="M165.803 35.409V35.7489C165.803 36.1527 165.753 36.5147 165.652 36.8349C165.551 37.155 165.405 37.4271 165.216 37.6512C165.026 37.8753 164.798 38.0465 164.532 38.1647C164.269 38.2829 163.973 38.342 163.646 38.342C163.328 38.342 163.036 38.2829 162.77 38.1647C162.507 38.0465 162.278 37.8753 162.083 37.6512C161.891 37.4271 161.742 37.155 161.636 36.8349C161.53 36.5147 161.477 36.1527 161.477 35.7489V35.409C161.477 35.0051 161.529 34.6444 161.633 34.3267C161.738 34.0066 161.887 33.7344 162.08 33.5103C162.272 33.2838 162.499 33.1114 162.763 32.9932C163.029 32.875 163.321 32.8159 163.638 32.8159C163.966 32.8159 164.261 32.875 164.525 32.9932C164.791 33.1114 165.019 33.2838 165.208 33.5103C165.4 33.7344 165.547 34.0066 165.648 34.3267C165.751 34.6444 165.803 35.0051 165.803 35.409ZM165.098 35.7489V35.4016C165.098 35.0815 165.064 34.7983 164.998 34.552C164.934 34.3058 164.839 34.0989 164.713 33.9314C164.588 33.764 164.434 33.6372 164.252 33.551C164.072 33.4648 163.867 33.4217 163.638 33.4217C163.417 33.4217 163.216 33.4648 163.036 33.551C162.859 33.6372 162.706 33.764 162.578 33.9314C162.453 34.0989 162.355 34.3058 162.286 34.552C162.217 34.7983 162.183 35.0815 162.183 35.4016V35.7489C162.183 36.0715 162.217 36.3571 162.286 36.6059C162.355 36.8521 162.454 37.0602 162.582 37.2301C162.712 37.3976 162.866 37.5244 163.044 37.6106C163.223 37.6968 163.424 37.7399 163.646 37.7399C163.877 37.7399 164.083 37.6968 164.263 37.6106C164.442 37.5244 164.594 37.3976 164.717 37.2301C164.843 37.0602 164.937 36.8521 165.001 36.6059C165.065 36.3571 165.098 36.0715 165.098 35.7489Z" fill="#89939E"/>
<path d="M175.049 36.6428L176.116 32.8898H176.633L176.334 34.3489L175.185 38.2681H174.672L175.049 36.6428ZM173.944 32.8898L174.794 36.5689L175.049 38.2681H174.539L173.235 32.8898H173.944ZM178.015 36.5652L178.846 32.8898H179.559L178.259 38.2681H177.749L178.015 36.5652ZM176.711 32.8898L177.749 36.6428L178.126 38.2681H177.612L176.504 34.3489L176.201 32.8898H176.711Z" fill="#89939E"/>
</g>
<path d="M128.34 6.42844C133.201 6.42844 137.141 10.3686 137.141 15.2289C137.141 20.0893 133.201 24.0294 128.34 24.0294C123.48 24.0294 119.54 20.0893 119.54 15.2289C119.54 10.3686 123.48 6.42844 128.34 6.42844ZM128.34 19.636C130.774 19.636 132.747 17.6629 132.747 15.2289C132.747 12.795 130.774 10.8219 128.34 10.8219C125.906 10.8219 123.933 12.795 123.933 15.2289C123.933 17.6629 125.906 19.636 128.34 19.636Z" fill="#E17D08"/>
<path d="M144.275 0.161976V23.4685H139.594V0.161976H144.275Z" fill="#E17D08"/>
<path d="M152.305 0.161976V23.4685H147.624V0.161976H152.305Z" fill="#E17D08"/>
<path d="M154.771 17.6918C154.771 14.0055 157.456 12.1624 162.826 12.1624C164.086 12.1624 165.347 12.2801 166.607 12.5157V11.1201C166.607 9.45949 165.411 8.62919 163.021 8.62919C160.995 8.62919 158.745 8.92363 156.272 9.51249V5.80265C158.745 5.21379 160.995 4.91936 163.021 4.91936C168.532 4.91936 171.288 6.95682 171.288 11.0318V23.4685H168.568L166.907 21.808C165.294 22.915 163.515 23.4685 161.572 23.4685C157.038 23.4685 154.771 21.543 154.771 17.6918ZM166.607 15.6956C165.429 15.46 164.169 15.3422 162.826 15.3422C160.577 15.3422 159.452 16.1078 159.452 17.6388C159.452 19.2876 160.394 20.112 162.279 20.112C163.833 20.112 165.276 19.6292 166.607 18.6634V15.6956Z" fill="#E17D08"/>
<path d="M174.637 23.4685V4.91936H178.259L178.841 7.28659C180.467 5.70843 182.186 4.91936 184 4.91936V8.69986C182.257 8.69986 180.696 9.42416 179.318 10.8728V23.4685H174.637Z" fill="#E17D08"/>
<path d="M118.809 22.5541C116.986 23.5238 114.943 24.0057 112.878 23.953C110.814 23.9002 108.798 23.3146 107.026 22.253C105.255 21.1914 103.788 19.6899 102.768 17.8942C101.748 16.0984 101.21 14.0695 101.206 12.0044C101.201 9.93929 101.731 7.90809 102.743 6.10796C103.755 4.30784 105.215 2.79996 106.982 1.73068C108.749 0.661404 110.762 0.0670589 112.826 0.00533846C114.89 -0.0563821 116.935 0.416619 118.763 1.37843L116.606 5.47599C115.485 4.88598 114.231 4.59583 112.964 4.63369C111.698 4.67155 110.463 5.03614 109.379 5.69208C108.296 6.34801 107.4 7.273 106.779 8.37727C106.158 9.48153 105.833 10.7275 105.836 11.9944C105.839 13.2612 106.169 14.5058 106.795 15.6074C107.42 16.7089 108.32 17.63 109.407 18.2812C110.493 18.9325 111.73 19.2917 112.996 19.324C114.263 19.3564 115.516 19.0608 116.635 18.4659L118.809 22.5541Z" fill="#E17D08"/>
<path d="M20.7869 23.4674V4.91818H24.4084L24.9914 7.28542C26.6167 5.70726 28.3362 4.91818 30.1499 4.91818V8.69869C28.4068 8.69869 26.8463 9.42299 25.4684 10.8716V23.4674H20.7869Z" fill="white"/>
<path d="M39.9022 4.91818C45.5317 4.91818 48.3465 7.79184 48.3465 13.5391C48.3465 14.3047 48.2935 15.0702 48.1875 15.8357H35.8743C35.8743 18.4503 37.794 19.7575 41.6334 19.7575C43.506 19.7575 45.3786 19.5809 47.2512 19.2276V22.9374C45.6141 23.2907 43.6238 23.4674 41.2801 23.4674C34.5553 23.4674 31.1929 20.3052 31.1929 13.9808C31.1929 7.93905 34.096 4.91818 39.9022 4.91818ZM35.8743 12.5852H43.7886V12.4439C43.7886 9.87641 42.4931 8.59269 39.9022 8.59269C37.4289 8.59269 36.0863 9.92352 35.8743 12.5852Z" fill="white"/>
<path d="M50.2551 17.6906C50.2551 14.0043 52.9403 12.1612 58.3107 12.1612C59.5709 12.1612 60.8311 12.279 62.0912 12.5145V11.1189C62.0912 9.45832 60.8958 8.62802 58.505 8.62802C56.4794 8.62802 54.2299 8.92246 51.7567 9.51132V5.80148C54.2299 5.21262 56.4794 4.91818 58.505 4.91818C64.0168 4.91818 66.7727 6.95565 66.7727 11.0306V23.4674H64.0521L62.3915 21.8068C60.7781 22.9138 58.9997 23.4674 57.0564 23.4674C52.5222 23.4674 50.2551 21.5418 50.2551 17.6906ZM62.0912 15.6944C60.9135 15.4588 59.6533 15.3411 58.3107 15.3411C56.0613 15.3411 54.9365 16.1066 54.9365 17.6376C54.9365 19.2865 55.8787 20.1109 57.7631 20.1109C59.3177 20.1109 60.7604 19.628 62.0912 18.6623V15.6944Z" fill="white"/>
<path d="M70.4832 23.4674V4.91818H74.1047L74.6524 7.6034C76.313 5.81326 78.3092 4.91818 80.6411 4.91818C82.973 4.91818 84.5688 5.76615 85.4286 7.46207C87.3247 5.76615 89.3092 4.91818 91.382 4.91818C95.6454 4.91818 97.777 7.26775 97.777 11.9669V23.4674H93.0956V11.7902C93.0956 9.7292 92.1652 8.69869 90.3044 8.69869C88.9147 8.69869 87.5779 9.32288 86.2942 10.5713V23.4674H81.6128V11.8432C81.6128 9.74686 80.753 8.69869 79.0335 8.69869C77.6674 8.69869 76.3778 9.32288 75.1647 10.5713V23.4674H70.4832Z" fill="white"/>
<path d="M17.6032 22.5541C15.7799 23.5238 13.7369 24.0057 11.6724 23.953C9.60798 23.9002 7.59223 23.3146 5.82085 22.253C4.04947 21.1914 2.58265 19.6899 1.56275 17.8942C0.542855 16.0984 0.00453934 14.0695 5.73693e-05 12.0044C-0.0044246 9.93929 0.525079 7.90809 1.53717 6.10796C2.54926 4.30784 4.00956 2.79996 5.77631 1.73068C7.54306 0.661404 9.55625 0.0670589 11.6205 0.00533846C13.6847 -0.0563821 15.7298 0.416619 17.5573 1.37843L15.4007 5.47599C14.2797 4.88598 13.0251 4.59583 11.7589 4.63369C10.4926 4.67155 9.25762 5.03614 8.17383 5.69208C7.09004 6.34801 6.19424 7.273 5.57339 8.37727C4.95253 9.48153 4.62771 10.7275 4.63046 11.9944C4.63321 13.2612 4.96343 14.5058 5.58908 15.6074C6.21472 16.7089 7.11453 17.63 8.20115 18.2812C9.28778 18.9325 10.5243 19.2917 11.7907 19.324C13.0571 19.3564 14.3104 19.0608 15.4289 18.4659L17.6032 22.5541Z" fill="white"/>
</g>
</svg>
